<mxfile host="65bd71144e">
    <diagram id="8Sc09e7jmbgoqr3F-YoG" name="Page-1">
        <mxGraphModel dx="3296" dy="1007" grid="1" gridSize="10" guides="1" tooltips="1" connect="1" arrows="1" fold="1" page="0" pageScale="1" pageWidth="850" pageHeight="1100" background="#333333" math="0" shadow="0">
            <root>
                <mxCell id="0"/>
                <mxCell id="1" parent="0"/>
                <mxCell id="7" value="&lt;h1&gt;DB&lt;/h1&gt;" style="rounded=0;whiteSpace=wrap;html=1;fillColor=#999999;" parent="1" vertex="1">
                    <mxGeometry x="-1780" y="-140" width="120" height="60" as="geometry"/>
                </mxCell>
                <mxCell id="8" value="" style="endArrow=classic;html=1;exitX=0.5;exitY=1;exitDx=0;exitDy=0;entryX=0.5;entryY=0;entryDx=0;entryDy=0;edgeStyle=orthogonalEdgeStyle;" parent="1" source="7" target="21" edge="1">
                    <mxGeometry width="50" height="50" relative="1" as="geometry">
                        <mxPoint x="-1560" y="20" as="sourcePoint"/>
                        <mxPoint x="-1280" y="100" as="targetPoint"/>
                    </mxGeometry>
                </mxCell>
                <mxCell id="10" value="" style="endArrow=classic;html=1;exitX=0.5;exitY=1;exitDx=0;exitDy=0;entryX=0.5;entryY=0;entryDx=0;entryDy=0;" parent="1" source="7" target="29" edge="1">
                    <mxGeometry width="50" height="50" relative="1" as="geometry">
                        <mxPoint x="-1560" y="20" as="sourcePoint"/>
                        <mxPoint x="-1720" y="100" as="targetPoint"/>
                    </mxGeometry>
                </mxCell>
                <mxCell id="11" value="" style="endArrow=classic;html=1;exitX=0.5;exitY=1;exitDx=0;exitDy=0;entryX=0.5;entryY=0;entryDx=0;entryDy=0;edgeStyle=orthogonalEdgeStyle;" parent="1" source="7" target="33" edge="1">
                    <mxGeometry width="50" height="50" relative="1" as="geometry">
                        <mxPoint x="-1560" y="20" as="sourcePoint"/>
                        <mxPoint x="-1940" y="100" as="targetPoint"/>
                    </mxGeometry>
                </mxCell>
                <mxCell id="12" value="" style="endArrow=classic;html=1;entryX=0.5;entryY=0;entryDx=0;entryDy=0;exitX=0.5;exitY=1;exitDx=0;exitDy=0;edgeStyle=orthogonalEdgeStyle;" parent="1" source="7" target="17" edge="1">
                    <mxGeometry width="50" height="50" relative="1" as="geometry">
                        <mxPoint x="-1560" y="20" as="sourcePoint"/>
                        <mxPoint x="-2160" y="100" as="targetPoint"/>
                    </mxGeometry>
                </mxCell>
                <mxCell id="17" value="&lt;b&gt;&lt;i&gt;Accounts:&lt;/i&gt;&lt;/b&gt;" style="swimlane;fontStyle=0;childLayout=stackLayout;horizontal=1;startSize=30;horizontalStack=0;resizeParent=1;resizeParentMax=0;resizeLast=0;collapsible=1;marginBottom=0;whiteSpace=wrap;html=1;fillColor=#999999;" parent="1" vertex="1">
                    <mxGeometry x="-2230" y="100" width="140" height="150" as="geometry"/>
                </mxCell>
                <mxCell id="18" value="email - Email" style="text;strokeColor=none;fillColor=#CCCCCC;align=left;verticalAlign=middle;spacingLeft=4;spacingRight=4;overflow=hidden;points=[[0,0.5],[1,0.5]];portConstraint=eastwest;rotatable=0;whiteSpace=wrap;html=1;" parent="17" vertex="1">
                    <mxGeometry y="30" width="140" height="30" as="geometry"/>
                </mxCell>
                <mxCell id="19" value="password - Password" style="text;strokeColor=none;fillColor=#CCCCCC;align=left;verticalAlign=middle;spacingLeft=4;spacingRight=4;overflow=hidden;points=[[0,0.5],[1,0.5]];portConstraint=eastwest;rotatable=0;whiteSpace=wrap;html=1;" parent="17" vertex="1">
                    <mxGeometry y="60" width="140" height="30" as="geometry"/>
                </mxCell>
                <mxCell id="71" value="userid - String" style="text;strokeColor=none;fillColor=#CCCCCC;align=left;verticalAlign=middle;spacingLeft=4;spacingRight=4;overflow=hidden;points=[[0,0.5],[1,0.5]];portConstraint=eastwest;rotatable=0;whiteSpace=wrap;html=1;" parent="17" vertex="1">
                    <mxGeometry y="90" width="140" height="30" as="geometry"/>
                </mxCell>
                <mxCell id="273" value="IsAdmin - bool" style="text;strokeColor=none;fillColor=#CCCCCC;align=left;verticalAlign=middle;spacingLeft=4;spacingRight=4;overflow=hidden;points=[[0,0.5],[1,0.5]];portConstraint=eastwest;rotatable=0;whiteSpace=wrap;html=1;" parent="17" vertex="1">
                    <mxGeometry y="120" width="140" height="30" as="geometry"/>
                </mxCell>
                <mxCell id="21" value="&lt;b&gt;&lt;i&gt;History&lt;/i&gt;&lt;/b&gt;" style="swimlane;fontStyle=0;childLayout=stackLayout;horizontal=1;startSize=30;horizontalStack=0;resizeParent=1;resizeParentMax=0;resizeLast=0;collapsible=1;marginBottom=0;whiteSpace=wrap;html=1;fillColor=#999999;" parent="1" vertex="1">
                    <mxGeometry x="-1350" y="100" width="140" height="120" as="geometry"/>
                </mxCell>
                <mxCell id="22" value="Account - Account" style="text;strokeColor=none;fillColor=#CCCCCC;align=left;verticalAlign=middle;spacingLeft=4;spacingRight=4;overflow=hidden;points=[[0,0.5],[1,0.5]];portConstraint=eastwest;rotatable=0;whiteSpace=wrap;html=1;" parent="21" vertex="1">
                    <mxGeometry y="30" width="140" height="30" as="geometry"/>
                </mxCell>
                <mxCell id="23" value="Drug - Drug" style="text;strokeColor=none;fillColor=#CCCCCC;align=left;verticalAlign=middle;spacingLeft=4;spacingRight=4;overflow=hidden;points=[[0,0.5],[1,0.5]];portConstraint=eastwest;rotatable=0;whiteSpace=wrap;html=1;" parent="21" vertex="1">
                    <mxGeometry y="60" width="140" height="30" as="geometry"/>
                </mxCell>
                <mxCell id="24" value="Time - Time" style="text;strokeColor=none;fillColor=#CCCCCC;align=left;verticalAlign=middle;spacingLeft=4;spacingRight=4;overflow=hidden;points=[[0,0.5],[1,0.5]];portConstraint=eastwest;rotatable=0;whiteSpace=wrap;html=1;" parent="21" vertex="1">
                    <mxGeometry y="90" width="140" height="30" as="geometry"/>
                </mxCell>
                <mxCell id="29" value="&lt;b&gt;&lt;i&gt;Purchases&lt;/i&gt;&lt;/b&gt;" style="swimlane;fontStyle=0;childLayout=stackLayout;horizontal=1;startSize=30;horizontalStack=0;resizeParent=1;resizeParentMax=0;resizeLast=0;collapsible=1;marginBottom=0;whiteSpace=wrap;html=1;fillColor=#999999;" parent="1" vertex="1">
                    <mxGeometry x="-1790" y="100" width="140" height="120" as="geometry"/>
                </mxCell>
                <mxCell id="30" value="Account - Account" style="text;strokeColor=none;fillColor=#CCCCCC;align=left;verticalAlign=middle;spacingLeft=4;spacingRight=4;overflow=hidden;points=[[0,0.5],[1,0.5]];portConstraint=eastwest;rotatable=0;whiteSpace=wrap;html=1;" parent="29" vertex="1">
                    <mxGeometry y="30" width="140" height="30" as="geometry"/>
                </mxCell>
                <mxCell id="31" value="Item - Item" style="text;strokeColor=none;fillColor=#CCCCCC;align=left;verticalAlign=middle;spacingLeft=4;spacingRight=4;overflow=hidden;points=[[0,0.5],[1,0.5]];portConstraint=eastwest;rotatable=0;whiteSpace=wrap;html=1;" parent="29" vertex="1">
                    <mxGeometry y="60" width="140" height="30" as="geometry"/>
                </mxCell>
                <mxCell id="32" value="Time - Time" style="text;strokeColor=none;fillColor=#CCCCCC;align=left;verticalAlign=middle;spacingLeft=4;spacingRight=4;overflow=hidden;points=[[0,0.5],[1,0.5]];portConstraint=eastwest;rotatable=0;whiteSpace=wrap;html=1;" parent="29" vertex="1">
                    <mxGeometry y="90" width="140" height="30" as="geometry"/>
                </mxCell>
                <mxCell id="33" value="&lt;b&gt;&lt;i&gt;Carts&lt;/i&gt;&lt;/b&gt;:" style="swimlane;fontStyle=0;childLayout=stackLayout;horizontal=1;startSize=30;horizontalStack=0;resizeParent=1;resizeParentMax=0;resizeLast=0;collapsible=1;marginBottom=0;whiteSpace=wrap;html=1;fillColor=#999999;" parent="1" vertex="1">
                    <mxGeometry x="-2010" y="100" width="140" height="90" as="geometry"/>
                </mxCell>
                <mxCell id="34" value="Accont - Account" style="text;strokeColor=none;fillColor=#CCCCCC;align=left;verticalAlign=middle;spacingLeft=4;spacingRight=4;overflow=hidden;points=[[0,0.5],[1,0.5]];portConstraint=eastwest;rotatable=0;whiteSpace=wrap;html=1;" parent="33" vertex="1">
                    <mxGeometry y="30" width="140" height="30" as="geometry"/>
                </mxCell>
                <mxCell id="35" value="Drug - Drug" style="text;strokeColor=none;fillColor=#CCCCCC;align=left;verticalAlign=middle;spacingLeft=4;spacingRight=4;overflow=hidden;points=[[0,0.5],[1,0.5]];portConstraint=eastwest;rotatable=0;whiteSpace=wrap;html=1;" parent="33" vertex="1">
                    <mxGeometry y="60" width="140" height="30" as="geometry"/>
                </mxCell>
                <mxCell id="37" value="" style="endArrow=classic;html=1;exitX=0.5;exitY=1;exitDx=0;exitDy=0;entryX=0.5;entryY=0;entryDx=0;entryDy=0;edgeStyle=orthogonalEdgeStyle;" parent="1" source="7" target="25" edge="1">
                    <mxGeometry width="50" height="50" relative="1" as="geometry">
                        <mxPoint x="-1720" y="-80" as="sourcePoint"/>
                        <mxPoint x="-1500" y="100" as="targetPoint"/>
                    </mxGeometry>
                </mxCell>
                <mxCell id="25" value="&lt;b&gt;&lt;i&gt;Products&lt;/i&gt;&lt;/b&gt;" style="swimlane;fontStyle=0;childLayout=stackLayout;horizontal=1;startSize=30;horizontalStack=0;resizeParent=1;resizeParentMax=0;resizeLast=0;collapsible=1;marginBottom=0;whiteSpace=wrap;html=1;fillColor=#999999;" parent="1" vertex="1">
                    <mxGeometry x="-1570" y="100" width="140" height="210" as="geometry"/>
                </mxCell>
                <mxCell id="26" value="Name - String" style="text;strokeColor=none;fillColor=#CCCCCC;align=left;verticalAlign=middle;spacingLeft=4;spacingRight=4;overflow=hidden;points=[[0,0.5],[1,0.5]];portConstraint=eastwest;rotatable=0;whiteSpace=wrap;html=1;" parent="25" vertex="1">
                    <mxGeometry y="30" width="140" height="30" as="geometry"/>
                </mxCell>
                <mxCell id="38" value="Description - String" style="text;strokeColor=none;fillColor=#CCCCCC;align=left;verticalAlign=middle;spacingLeft=4;spacingRight=4;overflow=hidden;points=[[0,0.5],[1,0.5]];portConstraint=eastwest;rotatable=0;whiteSpace=wrap;html=1;" parent="25" vertex="1">
                    <mxGeometry y="60" width="140" height="30" as="geometry"/>
                </mxCell>
                <mxCell id="27" value="Price - Float" style="text;strokeColor=none;fillColor=#CCCCCC;align=left;verticalAlign=middle;spacingLeft=4;spacingRight=4;overflow=hidden;points=[[0,0.5],[1,0.5]];portConstraint=eastwest;rotatable=0;whiteSpace=wrap;html=1;" parent="25" vertex="1">
                    <mxGeometry y="90" width="140" height="30" as="geometry"/>
                </mxCell>
                <mxCell id="28" value="Img - Img" style="text;strokeColor=none;fillColor=#CCCCCC;align=left;verticalAlign=middle;spacingLeft=4;spacingRight=4;overflow=hidden;points=[[0,0.5],[1,0.5]];portConstraint=eastwest;rotatable=0;whiteSpace=wrap;html=1;" parent="25" vertex="1">
                    <mxGeometry y="120" width="140" height="30" as="geometry"/>
                </mxCell>
                <mxCell id="255" value="Tags - Array[String]" style="text;strokeColor=none;fillColor=#CCCCCC;align=left;verticalAlign=middle;spacingLeft=4;spacingRight=4;overflow=hidden;points=[[0,0.5],[1,0.5]];portConstraint=eastwest;rotatable=0;whiteSpace=wrap;html=1;" parent="25" vertex="1">
                    <mxGeometry y="150" width="140" height="30" as="geometry"/>
                </mxCell>
                <mxCell id="251" value="Listed - bool" style="text;strokeColor=none;fillColor=#CCCCCC;align=left;verticalAlign=middle;spacingLeft=4;spacingRight=4;overflow=hidden;points=[[0,0.5],[1,0.5]];portConstraint=eastwest;rotatable=0;whiteSpace=wrap;html=1;" parent="25" vertex="1">
                    <mxGeometry y="180" width="140" height="30" as="geometry"/>
                </mxCell>
                <mxCell id="39" value="&lt;h1&gt;Server&lt;/h1&gt;" style="rounded=0;whiteSpace=wrap;html=1;fillColor=#999999;" parent="1" vertex="1">
                    <mxGeometry x="1360" y="-180" width="120" height="60" as="geometry"/>
                </mxCell>
                <mxCell id="40" value="" style="endArrow=classic;html=1;exitX=0.5;exitY=1;exitDx=0;exitDy=0;entryX=0.5;entryY=0;entryDx=0;entryDy=0;edgeStyle=orthogonalEdgeStyle;entryPerimeter=0;" parent="1" source="39" target="118" edge="1">
                    <mxGeometry width="50" height="50" relative="1" as="geometry">
                        <mxPoint x="1580" y="-20" as="sourcePoint"/>
                        <mxPoint x="1860" y="60" as="targetPoint"/>
                    </mxGeometry>
                </mxCell>
                <mxCell id="41" value="" style="endArrow=classic;html=1;exitX=0.5;exitY=1;exitDx=0;exitDy=0;entryX=0.5;entryY=0;entryDx=0;entryDy=0;edgeStyle=orthogonalEdgeStyle;" parent="1" source="39" target="51" edge="1">
                    <mxGeometry width="50" height="50" relative="1" as="geometry">
                        <mxPoint x="1580" y="-20" as="sourcePoint"/>
                        <mxPoint x="1420" y="60" as="targetPoint"/>
                    </mxGeometry>
                </mxCell>
                <mxCell id="42" value="" style="endArrow=classic;html=1;exitX=0.5;exitY=1;exitDx=0;exitDy=0;entryX=0.5;entryY=0;entryDx=0;entryDy=0;edgeStyle=orthogonalEdgeStyle;" parent="1" source="39" target="55" edge="1">
                    <mxGeometry width="50" height="50" relative="1" as="geometry">
                        <mxPoint x="1580" y="-20" as="sourcePoint"/>
                        <mxPoint x="1200" y="60" as="targetPoint"/>
                    </mxGeometry>
                </mxCell>
                <mxCell id="43" value="" style="endArrow=classic;html=1;entryX=0.5;entryY=0;entryDx=0;entryDy=0;exitX=0.5;exitY=1;exitDx=0;exitDy=0;edgeStyle=orthogonalEdgeStyle;" parent="1" source="39" target="44" edge="1">
                    <mxGeometry width="50" height="50" relative="1" as="geometry">
                        <mxPoint x="1580" y="-20" as="sourcePoint"/>
                        <mxPoint x="980" y="60" as="targetPoint"/>
                    </mxGeometry>
                </mxCell>
                <mxCell id="44" value="&lt;b&gt;&lt;i&gt;Login:&lt;/i&gt;&lt;/b&gt;" style="swimlane;fontStyle=0;childLayout=stackLayout;horizontal=1;startSize=30;horizontalStack=0;resizeParent=1;resizeParentMax=0;resizeLast=0;collapsible=1;marginBottom=0;whiteSpace=wrap;html=1;fillColor=#999999;" parent="1" vertex="1">
                    <mxGeometry x="740" y="40" width="140" height="90" as="geometry"/>
                </mxCell>
                <mxCell id="45" value="email -&amp;nbsp;&lt;span style=&quot;color: rgb(0, 0, 0);&quot;&gt;String&lt;/span&gt;" style="text;strokeColor=none;fillColor=#CCCCCC;align=left;verticalAlign=middle;spacingLeft=4;spacingRight=4;overflow=hidden;points=[[0,0.5],[1,0.5]];portConstraint=eastwest;rotatable=0;whiteSpace=wrap;html=1;" parent="44" vertex="1">
                    <mxGeometry y="30" width="140" height="30" as="geometry"/>
                </mxCell>
                <mxCell id="46" value="password -&amp;nbsp;&lt;span style=&quot;color: rgb(0, 0, 0);&quot;&gt;String&lt;/span&gt;" style="text;strokeColor=none;fillColor=#CCCCCC;align=left;verticalAlign=middle;spacingLeft=4;spacingRight=4;overflow=hidden;points=[[0,0.5],[1,0.5]];portConstraint=eastwest;rotatable=0;whiteSpace=wrap;html=1;" parent="44" vertex="1">
                    <mxGeometry y="60" width="140" height="30" as="geometry"/>
                </mxCell>
                <mxCell id="51" value="&lt;b&gt;&lt;i&gt;Add to Cart:&lt;/i&gt;&lt;/b&gt;" style="swimlane;fontStyle=0;childLayout=stackLayout;horizontal=1;startSize=30;horizontalStack=0;resizeParent=1;resizeParentMax=0;resizeLast=0;collapsible=1;marginBottom=0;whiteSpace=wrap;html=1;fillColor=#999999;" parent="1" vertex="1">
                    <mxGeometry x="1530" y="40" width="140" height="90" as="geometry"/>
                </mxCell>
                <mxCell id="52" value="ItemID - String" style="text;strokeColor=none;fillColor=#CCCCCC;align=left;verticalAlign=middle;spacingLeft=4;spacingRight=4;overflow=hidden;points=[[0,0.5],[1,0.5]];portConstraint=eastwest;rotatable=0;whiteSpace=wrap;html=1;" parent="51" vertex="1">
                    <mxGeometry y="30" width="140" height="30" as="geometry"/>
                </mxCell>
                <mxCell id="53" value="UserID -&amp;nbsp;&lt;span style=&quot;color: rgb(0, 0, 0);&quot;&gt;String&lt;/span&gt;" style="text;strokeColor=none;fillColor=#CCCCCC;align=left;verticalAlign=middle;spacingLeft=4;spacingRight=4;overflow=hidden;points=[[0,0.5],[1,0.5]];portConstraint=eastwest;rotatable=0;whiteSpace=wrap;html=1;" parent="51" vertex="1">
                    <mxGeometry y="60" width="140" height="30" as="geometry"/>
                </mxCell>
                <mxCell id="65" value="" style="edgeStyle=none;html=1;entryX=0.5;entryY=0;entryDx=0;entryDy=0;" parent="1" source="55" target="66" edge="1">
                    <mxGeometry relative="1" as="geometry">
                        <mxPoint x="1030" y="230" as="targetPoint"/>
                    </mxGeometry>
                </mxCell>
                <mxCell id="55" value="&lt;b&gt;&lt;i&gt;Create Account:&amp;nbsp;&lt;br&gt;&lt;/i&gt;&lt;/b&gt;" style="swimlane;fontStyle=0;childLayout=stackLayout;horizontal=1;startSize=30;horizontalStack=0;resizeParent=1;resizeParentMax=0;resizeLast=0;collapsible=1;marginBottom=0;whiteSpace=wrap;html=1;fillColor=#999999;" parent="1" vertex="1">
                    <mxGeometry x="980" y="40" width="140" height="90" as="geometry"/>
                </mxCell>
                <mxCell id="56" value="email -&amp;nbsp;&lt;span style=&quot;color: rgb(0, 0, 0);&quot;&gt;String&lt;/span&gt;" style="text;strokeColor=none;fillColor=#CCCCCC;align=left;verticalAlign=middle;spacingLeft=4;spacingRight=4;overflow=hidden;points=[[0,0.5],[1,0.5]];portConstraint=eastwest;rotatable=0;whiteSpace=wrap;html=1;" parent="55" vertex="1">
                    <mxGeometry y="30" width="140" height="30" as="geometry"/>
                </mxCell>
                <mxCell id="57" value="password -&amp;nbsp;&lt;span style=&quot;color: rgb(0, 0, 0);&quot;&gt;String&lt;/span&gt;" style="text;strokeColor=none;fillColor=#CCCCCC;align=left;verticalAlign=middle;spacingLeft=4;spacingRight=4;overflow=hidden;points=[[0,0.5],[1,0.5]];portConstraint=eastwest;rotatable=0;whiteSpace=wrap;html=1;" parent="55" vertex="1">
                    <mxGeometry y="60" width="140" height="30" as="geometry"/>
                </mxCell>
                <mxCell id="58" value="" style="endArrow=classic;html=1;exitX=0.5;exitY=1;exitDx=0;exitDy=0;entryX=0.5;entryY=0;entryDx=0;entryDy=0;edgeStyle=orthogonalEdgeStyle;" parent="1" source="39" target="84" edge="1">
                    <mxGeometry width="50" height="50" relative="1" as="geometry">
                        <mxPoint x="1420" y="-120" as="sourcePoint"/>
                        <mxPoint x="1640" y="60" as="targetPoint"/>
                    </mxGeometry>
                </mxCell>
                <mxCell id="66" value="&lt;b&gt;&lt;i&gt;Returns:&lt;br&gt;&lt;/i&gt;&lt;/b&gt;" style="swimlane;fontStyle=0;childLayout=stackLayout;horizontal=1;startSize=30;horizontalStack=0;resizeParent=1;resizeParentMax=0;resizeLast=0;collapsible=1;marginBottom=0;whiteSpace=wrap;html=1;fillColor=#999999;" parent="1" vertex="1">
                    <mxGeometry x="980" y="220" width="140" height="120" as="geometry"/>
                </mxCell>
                <mxCell id="318" value="&lt;span style=&quot;color: rgb(0, 0, 0);&quot;&gt;worked - bool&lt;/span&gt;" style="text;strokeColor=none;fillColor=#CCCCCC;align=left;verticalAlign=middle;spacingLeft=4;spacingRight=4;overflow=hidden;points=[[0,0.5],[1,0.5]];portConstraint=eastwest;rotatable=0;whiteSpace=wrap;html=1;" parent="66" vertex="1">
                    <mxGeometry y="30" width="140" height="30" as="geometry"/>
                </mxCell>
                <mxCell id="319" value="&lt;span style=&quot;color: rgb(0, 0, 0);&quot;&gt;Message - String&lt;/span&gt;" style="text;strokeColor=none;fillColor=#CCCCCC;align=left;verticalAlign=middle;spacingLeft=4;spacingRight=4;overflow=hidden;points=[[0,0.5],[1,0.5]];portConstraint=eastwest;rotatable=0;whiteSpace=wrap;html=1;" parent="66" vertex="1">
                    <mxGeometry y="60" width="140" height="30" as="geometry"/>
                </mxCell>
                <mxCell id="70" value="&lt;font style=&quot;color: rgb(0, 0, 0);&quot;&gt;UserID&lt;span style=&quot;background-color: transparent;&quot;&gt;&amp;nbsp;- String&lt;/span&gt;&lt;/font&gt;" style="text;strokeColor=none;fillColor=#CCCCCC;align=left;verticalAlign=middle;spacingLeft=4;spacingRight=4;overflow=hidden;points=[[0,0.5],[1,0.5]];portConstraint=eastwest;rotatable=0;whiteSpace=wrap;html=1;" parent="66" vertex="1">
                    <mxGeometry y="90" width="140" height="30" as="geometry"/>
                </mxCell>
                <mxCell id="72" value="" style="edgeStyle=none;html=1;exitX=0.5;exitY=1;exitDx=0;exitDy=0;entryX=0.5;entryY=0;entryDx=0;entryDy=0;" parent="1" source="44" target="73" edge="1">
                    <mxGeometry relative="1" as="geometry">
                        <mxPoint x="809.58" y="160" as="sourcePoint"/>
                        <mxPoint x="810" y="220" as="targetPoint"/>
                    </mxGeometry>
                </mxCell>
                <mxCell id="73" value="&lt;b&gt;&lt;i&gt;Returns:&lt;br&gt;&lt;/i&gt;&lt;/b&gt;" style="swimlane;fontStyle=0;childLayout=stackLayout;horizontal=1;startSize=30;horizontalStack=0;resizeParent=1;resizeParentMax=0;resizeLast=0;collapsible=1;marginBottom=0;whiteSpace=wrap;html=1;fillColor=#999999;" parent="1" vertex="1">
                    <mxGeometry x="740" y="220" width="140" height="120" as="geometry"/>
                </mxCell>
                <mxCell id="317" value="&lt;span style=&quot;color: rgb(0, 0, 0);&quot;&gt;Message - String&lt;/span&gt;" style="text;strokeColor=none;fillColor=#CCCCCC;align=left;verticalAlign=middle;spacingLeft=4;spacingRight=4;overflow=hidden;points=[[0,0.5],[1,0.5]];portConstraint=eastwest;rotatable=0;whiteSpace=wrap;html=1;" parent="73" vertex="1">
                    <mxGeometry y="30" width="140" height="30" as="geometry"/>
                </mxCell>
                <mxCell id="316" value="&lt;span style=&quot;color: rgb(0, 0, 0);&quot;&gt;worked - bool&lt;/span&gt;" style="text;strokeColor=none;fillColor=#CCCCCC;align=left;verticalAlign=middle;spacingLeft=4;spacingRight=4;overflow=hidden;points=[[0,0.5],[1,0.5]];portConstraint=eastwest;rotatable=0;whiteSpace=wrap;html=1;" parent="73" vertex="1">
                    <mxGeometry y="60" width="140" height="30" as="geometry"/>
                </mxCell>
                <mxCell id="77" value="&lt;font style=&quot;color: rgb(0, 0, 0);&quot;&gt;UserID&lt;span style=&quot;background-color: transparent;&quot;&gt;&amp;nbsp;- String&lt;/span&gt;&lt;/font&gt;" style="text;strokeColor=none;fillColor=#CCCCCC;align=left;verticalAlign=middle;spacingLeft=4;spacingRight=4;overflow=hidden;points=[[0,0.5],[1,0.5]];portConstraint=eastwest;rotatable=0;whiteSpace=wrap;html=1;" parent="73" vertex="1">
                    <mxGeometry y="90" width="140" height="30" as="geometry"/>
                </mxCell>
                <mxCell id="78" value="&lt;b&gt;&lt;i&gt;Returns:&lt;br&gt;&lt;/i&gt;&lt;/b&gt;" style="swimlane;fontStyle=0;childLayout=stackLayout;horizontal=1;startSize=30;horizontalStack=0;resizeParent=1;resizeParentMax=0;resizeLast=0;collapsible=1;marginBottom=0;whiteSpace=wrap;html=1;fillColor=#999999;" parent="1" vertex="1">
                    <mxGeometry x="1530" y="220" width="140" height="90" as="geometry"/>
                </mxCell>
                <mxCell id="327" value="&lt;span style=&quot;color: rgb(0, 0, 0);&quot;&gt;worked - bool&lt;/span&gt;" style="text;strokeColor=none;fillColor=#CCCCCC;align=left;verticalAlign=middle;spacingLeft=4;spacingRight=4;overflow=hidden;points=[[0,0.5],[1,0.5]];portConstraint=eastwest;rotatable=0;whiteSpace=wrap;html=1;" parent="78" vertex="1">
                    <mxGeometry y="30" width="140" height="30" as="geometry"/>
                </mxCell>
                <mxCell id="328" value="&lt;span style=&quot;color: rgb(0, 0, 0);&quot;&gt;Message - String&lt;/span&gt;" style="text;strokeColor=none;fillColor=#CCCCCC;align=left;verticalAlign=middle;spacingLeft=4;spacingRight=4;overflow=hidden;points=[[0,0.5],[1,0.5]];portConstraint=eastwest;rotatable=0;whiteSpace=wrap;html=1;" parent="78" vertex="1">
                    <mxGeometry y="60" width="140" height="30" as="geometry"/>
                </mxCell>
                <mxCell id="83" value="" style="endArrow=classic;html=1;entryX=0.5;entryY=0;entryDx=0;entryDy=0;" parent="1" source="53" target="78" edge="1">
                    <mxGeometry width="50" height="50" relative="1" as="geometry">
                        <mxPoint x="1590" y="132" as="sourcePoint"/>
                        <mxPoint x="1590" y="220" as="targetPoint"/>
                    </mxGeometry>
                </mxCell>
                <mxCell id="84" value="&lt;b&gt;&lt;i&gt;Add to History&lt;/i&gt;&lt;/b&gt;" style="swimlane;fontStyle=0;childLayout=stackLayout;horizontal=1;startSize=30;horizontalStack=0;resizeParent=1;resizeParentMax=0;resizeLast=0;collapsible=1;marginBottom=0;whiteSpace=wrap;html=1;fillColor=#999999;" parent="1" vertex="1">
                    <mxGeometry x="1970" y="40" width="140" height="90" as="geometry"/>
                </mxCell>
                <mxCell id="85" value="ItemID - String" style="text;strokeColor=none;fillColor=#CCCCCC;align=left;verticalAlign=middle;spacingLeft=4;spacingRight=4;overflow=hidden;points=[[0,0.5],[1,0.5]];portConstraint=eastwest;rotatable=0;whiteSpace=wrap;html=1;" parent="84" vertex="1">
                    <mxGeometry y="30" width="140" height="30" as="geometry"/>
                </mxCell>
                <mxCell id="86" value="UserID -&amp;nbsp;&lt;span style=&quot;color: rgb(0, 0, 0);&quot;&gt;String&lt;/span&gt;" style="text;strokeColor=none;fillColor=#CCCCCC;align=left;verticalAlign=middle;spacingLeft=4;spacingRight=4;overflow=hidden;points=[[0,0.5],[1,0.5]];portConstraint=eastwest;rotatable=0;whiteSpace=wrap;html=1;" parent="84" vertex="1">
                    <mxGeometry y="60" width="140" height="30" as="geometry"/>
                </mxCell>
                <mxCell id="91" value="" style="endArrow=classic;html=1;entryX=0.5;entryY=0;entryDx=0;entryDy=0;" parent="1" source="86" target="92" edge="1">
                    <mxGeometry width="50" height="50" relative="1" as="geometry">
                        <mxPoint x="2030" y="132" as="sourcePoint"/>
                        <mxPoint x="2040" y="220" as="targetPoint"/>
                    </mxGeometry>
                </mxCell>
                <mxCell id="92" value="&lt;b&gt;&lt;i&gt;Returns:&lt;br&gt;&lt;/i&gt;&lt;/b&gt;" style="swimlane;fontStyle=0;childLayout=stackLayout;horizontal=1;startSize=30;horizontalStack=0;resizeParent=1;resizeParentMax=0;resizeLast=0;collapsible=1;marginBottom=0;whiteSpace=wrap;html=1;fillColor=#999999;" parent="1" vertex="1">
                    <mxGeometry x="1970" y="220" width="140" height="120" as="geometry"/>
                </mxCell>
                <mxCell id="331" value="&lt;span style=&quot;color: rgb(0, 0, 0);&quot;&gt;worked - bool&lt;/span&gt;" style="text;strokeColor=none;fillColor=#CCCCCC;align=left;verticalAlign=middle;spacingLeft=4;spacingRight=4;overflow=hidden;points=[[0,0.5],[1,0.5]];portConstraint=eastwest;rotatable=0;whiteSpace=wrap;html=1;" parent="92" vertex="1">
                    <mxGeometry y="30" width="140" height="30" as="geometry"/>
                </mxCell>
                <mxCell id="332" value="&lt;span style=&quot;color: rgb(0, 0, 0);&quot;&gt;Message - String&lt;/span&gt;" style="text;strokeColor=none;fillColor=#CCCCCC;align=left;verticalAlign=middle;spacingLeft=4;spacingRight=4;overflow=hidden;points=[[0,0.5],[1,0.5]];portConstraint=eastwest;rotatable=0;whiteSpace=wrap;html=1;" parent="92" vertex="1">
                    <mxGeometry y="60" width="140" height="30" as="geometry"/>
                </mxCell>
                <mxCell id="93" value="Void" style="text;strokeColor=none;fillColor=#CCCCCC;align=left;verticalAlign=middle;spacingLeft=4;spacingRight=4;overflow=hidden;points=[[0,0.5],[1,0.5]];portConstraint=eastwest;rotatable=0;whiteSpace=wrap;html=1;" parent="92" vertex="1">
                    <mxGeometry y="90" width="140" height="30" as="geometry"/>
                </mxCell>
                <mxCell id="96" value="&lt;b&gt;&lt;i&gt;Remove From Cart:&lt;/i&gt;&lt;/b&gt;" style="swimlane;fontStyle=0;childLayout=stackLayout;horizontal=1;startSize=30;horizontalStack=0;resizeParent=1;resizeParentMax=0;resizeLast=0;collapsible=1;marginBottom=0;whiteSpace=wrap;html=1;fillColor=#999999;" parent="1" vertex="1">
                    <mxGeometry x="1260" y="40" width="140" height="90" as="geometry"/>
                </mxCell>
                <mxCell id="97" value="ItemID - String" style="text;strokeColor=none;fillColor=#CCCCCC;align=left;verticalAlign=middle;spacingLeft=4;spacingRight=4;overflow=hidden;points=[[0,0.5],[1,0.5]];portConstraint=eastwest;rotatable=0;whiteSpace=wrap;html=1;" parent="96" vertex="1">
                    <mxGeometry y="30" width="140" height="30" as="geometry"/>
                </mxCell>
                <mxCell id="98" value="UserID -&amp;nbsp;&lt;span style=&quot;color: rgb(0, 0, 0);&quot;&gt;String&lt;/span&gt;" style="text;strokeColor=none;fillColor=#CCCCCC;align=left;verticalAlign=middle;spacingLeft=4;spacingRight=4;overflow=hidden;points=[[0,0.5],[1,0.5]];portConstraint=eastwest;rotatable=0;whiteSpace=wrap;html=1;" parent="96" vertex="1">
                    <mxGeometry y="60" width="140" height="30" as="geometry"/>
                </mxCell>
                <mxCell id="99" value="&lt;b&gt;&lt;i&gt;Returns:&lt;br&gt;&lt;/i&gt;&lt;/b&gt;" style="swimlane;fontStyle=0;childLayout=stackLayout;horizontal=1;startSize=30;horizontalStack=0;resizeParent=1;resizeParentMax=0;resizeLast=0;collapsible=1;marginBottom=0;whiteSpace=wrap;html=1;fillColor=#999999;" parent="1" vertex="1">
                    <mxGeometry x="1260" y="220" width="140" height="120" as="geometry"/>
                </mxCell>
                <mxCell id="325" value="&lt;span style=&quot;color: rgb(0, 0, 0);&quot;&gt;worked - bool&lt;/span&gt;" style="text;strokeColor=none;fillColor=#CCCCCC;align=left;verticalAlign=middle;spacingLeft=4;spacingRight=4;overflow=hidden;points=[[0,0.5],[1,0.5]];portConstraint=eastwest;rotatable=0;whiteSpace=wrap;html=1;" parent="99" vertex="1">
                    <mxGeometry y="30" width="140" height="30" as="geometry"/>
                </mxCell>
                <mxCell id="326" value="&lt;span style=&quot;color: rgb(0, 0, 0);&quot;&gt;Message - String&lt;/span&gt;" style="text;strokeColor=none;fillColor=#CCCCCC;align=left;verticalAlign=middle;spacingLeft=4;spacingRight=4;overflow=hidden;points=[[0,0.5],[1,0.5]];portConstraint=eastwest;rotatable=0;whiteSpace=wrap;html=1;" parent="99" vertex="1">
                    <mxGeometry y="60" width="140" height="30" as="geometry"/>
                </mxCell>
                <mxCell id="100" value="Void" style="text;strokeColor=none;fillColor=#CCCCCC;align=left;verticalAlign=middle;spacingLeft=4;spacingRight=4;overflow=hidden;points=[[0,0.5],[1,0.5]];portConstraint=eastwest;rotatable=0;whiteSpace=wrap;html=1;" parent="99" vertex="1">
                    <mxGeometry y="90" width="140" height="30" as="geometry"/>
                </mxCell>
                <mxCell id="103" value="" style="endArrow=classic;html=1;entryX=0.5;entryY=0;entryDx=0;entryDy=0;" parent="1" source="98" target="99" edge="1">
                    <mxGeometry width="50" height="50" relative="1" as="geometry">
                        <mxPoint x="1320" y="132" as="sourcePoint"/>
                        <mxPoint x="1320" y="220" as="targetPoint"/>
                    </mxGeometry>
                </mxCell>
                <mxCell id="104" value="" style="endArrow=classic;html=1;exitX=0.5;exitY=1;exitDx=0;exitDy=0;entryX=0.5;entryY=0;entryDx=0;entryDy=0;edgeStyle=orthogonalEdgeStyle;" parent="1" source="39" target="96" edge="1">
                    <mxGeometry width="50" height="50" relative="1" as="geometry">
                        <mxPoint x="1320" y="270" as="sourcePoint"/>
                        <mxPoint x="1370" y="220" as="targetPoint"/>
                    </mxGeometry>
                </mxCell>
                <mxCell id="105" value="&lt;b&gt;&lt;i&gt;Get Cart Items:&lt;/i&gt;&lt;/b&gt;" style="swimlane;fontStyle=0;childLayout=stackLayout;horizontal=1;startSize=30;horizontalStack=0;resizeParent=1;resizeParentMax=0;resizeLast=0;collapsible=1;marginBottom=0;whiteSpace=wrap;html=1;fillColor=#999999;" parent="1" vertex="1">
                    <mxGeometry x="1750" y="40" width="140" height="60" as="geometry"/>
                </mxCell>
                <mxCell id="107" value="UserID -&amp;nbsp;&lt;span style=&quot;color: rgb(0, 0, 0);&quot;&gt;String&lt;/span&gt;" style="text;strokeColor=none;fillColor=#CCCCCC;align=left;verticalAlign=middle;spacingLeft=4;spacingRight=4;overflow=hidden;points=[[0,0.5],[1,0.5]];portConstraint=eastwest;rotatable=0;whiteSpace=wrap;html=1;" parent="105" vertex="1">
                    <mxGeometry y="30" width="140" height="30" as="geometry"/>
                </mxCell>
                <mxCell id="108" value="&lt;b&gt;&lt;i&gt;Returns:&lt;br&gt;&lt;/i&gt;&lt;/b&gt;" style="swimlane;fontStyle=0;childLayout=stackLayout;horizontal=1;startSize=30;horizontalStack=0;resizeParent=1;resizeParentMax=0;resizeLast=0;collapsible=1;marginBottom=0;whiteSpace=wrap;html=1;fillColor=#999999;" parent="1" vertex="1">
                    <mxGeometry x="1750" y="220" width="140" height="120" as="geometry"/>
                </mxCell>
                <mxCell id="329" value="&lt;span style=&quot;color: rgb(0, 0, 0);&quot;&gt;worked - bool&lt;/span&gt;" style="text;strokeColor=none;fillColor=#CCCCCC;align=left;verticalAlign=middle;spacingLeft=4;spacingRight=4;overflow=hidden;points=[[0,0.5],[1,0.5]];portConstraint=eastwest;rotatable=0;whiteSpace=wrap;html=1;" parent="108" vertex="1">
                    <mxGeometry y="30" width="140" height="30" as="geometry"/>
                </mxCell>
                <mxCell id="330" value="&lt;span style=&quot;color: rgb(0, 0, 0);&quot;&gt;Message - String&lt;/span&gt;" style="text;strokeColor=none;fillColor=#CCCCCC;align=left;verticalAlign=middle;spacingLeft=4;spacingRight=4;overflow=hidden;points=[[0,0.5],[1,0.5]];portConstraint=eastwest;rotatable=0;whiteSpace=wrap;html=1;" parent="108" vertex="1">
                    <mxGeometry y="60" width="140" height="30" as="geometry"/>
                </mxCell>
                <mxCell id="111" value="Products - List[String]" style="text;strokeColor=none;fillColor=#CCCCCC;align=left;verticalAlign=middle;spacingLeft=4;spacingRight=4;overflow=hidden;points=[[0,0.5],[1,0.5]];portConstraint=eastwest;rotatable=0;whiteSpace=wrap;html=1;" parent="108" vertex="1">
                    <mxGeometry y="90" width="140" height="30" as="geometry"/>
                </mxCell>
                <mxCell id="112" value="" style="endArrow=classic;html=1;entryX=0.5;entryY=0;entryDx=0;entryDy=0;" parent="1" source="107" target="108" edge="1">
                    <mxGeometry width="50" height="50" relative="1" as="geometry">
                        <mxPoint x="1810" y="132" as="sourcePoint"/>
                        <mxPoint x="1810" y="220" as="targetPoint"/>
                    </mxGeometry>
                </mxCell>
                <mxCell id="117" value="" style="endArrow=classic;html=1;exitX=0.5;exitY=1;exitDx=0;exitDy=0;entryX=0.5;entryY=0;entryDx=0;entryDy=0;edgeStyle=orthogonalEdgeStyle;" parent="1" source="39" target="105" edge="1">
                    <mxGeometry width="50" height="50" relative="1" as="geometry">
                        <mxPoint x="1100" y="330" as="sourcePoint"/>
                        <mxPoint x="1150" y="280" as="targetPoint"/>
                    </mxGeometry>
                </mxCell>
                <mxCell id="118" value="&lt;b&gt;&lt;i&gt;Get Histroy&lt;/i&gt;&lt;/b&gt;" style="swimlane;fontStyle=0;childLayout=stackLayout;horizontal=1;startSize=30;horizontalStack=0;resizeParent=1;resizeParentMax=0;resizeLast=0;collapsible=1;marginBottom=0;whiteSpace=wrap;html=1;fillColor=#999999;" parent="1" vertex="1">
                    <mxGeometry x="2190" y="40" width="140" height="60" as="geometry"/>
                </mxCell>
                <mxCell id="120" value="UserID -&amp;nbsp;&lt;span style=&quot;color: rgb(0, 0, 0);&quot;&gt;String&lt;/span&gt;" style="text;strokeColor=none;fillColor=#CCCCCC;align=left;verticalAlign=middle;spacingLeft=4;spacingRight=4;overflow=hidden;points=[[0,0.5],[1,0.5]];portConstraint=eastwest;rotatable=0;whiteSpace=wrap;html=1;" parent="118" vertex="1">
                    <mxGeometry y="30" width="140" height="30" as="geometry"/>
                </mxCell>
                <mxCell id="121" value="" style="endArrow=classic;html=1;entryX=0.5;entryY=0;entryDx=0;entryDy=0;" parent="1" source="120" target="122" edge="1">
                    <mxGeometry width="50" height="50" relative="1" as="geometry">
                        <mxPoint x="2250" y="132" as="sourcePoint"/>
                        <mxPoint x="2260" y="220" as="targetPoint"/>
                    </mxGeometry>
                </mxCell>
                <mxCell id="122" value="&lt;b&gt;&lt;i&gt;Returns:&lt;br&gt;&lt;/i&gt;&lt;/b&gt;" style="swimlane;fontStyle=0;childLayout=stackLayout;horizontal=1;startSize=30;horizontalStack=0;resizeParent=1;resizeParentMax=0;resizeLast=0;collapsible=1;marginBottom=0;whiteSpace=wrap;html=1;fillColor=#999999;" parent="1" vertex="1">
                    <mxGeometry x="2190" y="220" width="140" height="120" as="geometry"/>
                </mxCell>
                <mxCell id="333" value="&lt;span style=&quot;color: rgb(0, 0, 0);&quot;&gt;worked - bool&lt;/span&gt;" style="text;strokeColor=none;fillColor=#CCCCCC;align=left;verticalAlign=middle;spacingLeft=4;spacingRight=4;overflow=hidden;points=[[0,0.5],[1,0.5]];portConstraint=eastwest;rotatable=0;whiteSpace=wrap;html=1;" parent="122" vertex="1">
                    <mxGeometry y="30" width="140" height="30" as="geometry"/>
                </mxCell>
                <mxCell id="334" value="&lt;span style=&quot;color: rgb(0, 0, 0);&quot;&gt;Message - String&lt;/span&gt;" style="text;strokeColor=none;fillColor=#CCCCCC;align=left;verticalAlign=middle;spacingLeft=4;spacingRight=4;overflow=hidden;points=[[0,0.5],[1,0.5]];portConstraint=eastwest;rotatable=0;whiteSpace=wrap;html=1;" parent="122" vertex="1">
                    <mxGeometry y="60" width="140" height="30" as="geometry"/>
                </mxCell>
                <mxCell id="123" value="&lt;span style=&quot;color: rgb(0, 0, 0);&quot;&gt;Products - List[String]&lt;/span&gt;" style="text;strokeColor=none;fillColor=#CCCCCC;align=left;verticalAlign=middle;spacingLeft=4;spacingRight=4;overflow=hidden;points=[[0,0.5],[1,0.5]];portConstraint=eastwest;rotatable=0;whiteSpace=wrap;html=1;" parent="122" vertex="1">
                    <mxGeometry y="90" width="140" height="30" as="geometry"/>
                </mxCell>
                <mxCell id="124" value="&lt;b&gt;&lt;i&gt;Get Product&lt;/i&gt;&lt;/b&gt;" style="swimlane;fontStyle=0;childLayout=stackLayout;horizontal=1;startSize=30;horizontalStack=0;resizeParent=1;resizeParentMax=0;resizeLast=0;collapsible=1;marginBottom=0;whiteSpace=wrap;html=1;fillColor=#999999;" parent="1" vertex="1">
                    <mxGeometry x="2410" y="40" width="140" height="60" as="geometry"/>
                </mxCell>
                <mxCell id="125" value="ProductID - String" style="text;strokeColor=none;fillColor=#CCCCCC;align=left;verticalAlign=middle;spacingLeft=4;spacingRight=4;overflow=hidden;points=[[0,0.5],[1,0.5]];portConstraint=eastwest;rotatable=0;whiteSpace=wrap;html=1;" parent="124" vertex="1">
                    <mxGeometry y="30" width="140" height="30" as="geometry"/>
                </mxCell>
                <mxCell id="126" value="" style="endArrow=classic;html=1;entryX=0.5;entryY=0;entryDx=0;entryDy=0;" parent="1" source="125" target="127" edge="1">
                    <mxGeometry width="50" height="50" relative="1" as="geometry">
                        <mxPoint x="2470" y="132" as="sourcePoint"/>
                        <mxPoint x="2480" y="220" as="targetPoint"/>
                    </mxGeometry>
                </mxCell>
                <mxCell id="127" value="&lt;b&gt;&lt;i&gt;Returns:&lt;br&gt;&lt;/i&gt;&lt;/b&gt;" style="swimlane;fontStyle=0;childLayout=stackLayout;horizontal=1;startSize=30;horizontalStack=0;resizeParent=1;resizeParentMax=0;resizeLast=0;collapsible=1;marginBottom=0;whiteSpace=wrap;html=1;fillColor=#999999;" parent="1" vertex="1">
                    <mxGeometry x="2410" y="220" width="140" height="120" as="geometry"/>
                </mxCell>
                <mxCell id="335" value="&lt;span style=&quot;color: rgb(0, 0, 0);&quot;&gt;worked - bool&lt;/span&gt;" style="text;strokeColor=none;fillColor=#CCCCCC;align=left;verticalAlign=middle;spacingLeft=4;spacingRight=4;overflow=hidden;points=[[0,0.5],[1,0.5]];portConstraint=eastwest;rotatable=0;whiteSpace=wrap;html=1;" parent="127" vertex="1">
                    <mxGeometry y="30" width="140" height="30" as="geometry"/>
                </mxCell>
                <mxCell id="336" value="&lt;span style=&quot;color: rgb(0, 0, 0);&quot;&gt;Message - String&lt;/span&gt;" style="text;strokeColor=none;fillColor=#CCCCCC;align=left;verticalAlign=middle;spacingLeft=4;spacingRight=4;overflow=hidden;points=[[0,0.5],[1,0.5]];portConstraint=eastwest;rotatable=0;whiteSpace=wrap;html=1;" parent="127" vertex="1">
                    <mxGeometry y="60" width="140" height="30" as="geometry"/>
                </mxCell>
                <mxCell id="128" value="&lt;span style=&quot;color: rgb(0, 0, 0);&quot;&gt;Product - Product&lt;/span&gt;" style="text;strokeColor=none;fillColor=#CCCCCC;align=left;verticalAlign=middle;spacingLeft=4;spacingRight=4;overflow=hidden;points=[[0,0.5],[1,0.5]];portConstraint=eastwest;rotatable=0;whiteSpace=wrap;html=1;" parent="127" vertex="1">
                    <mxGeometry y="90" width="140" height="30" as="geometry"/>
                </mxCell>
                <mxCell id="129" value="" style="endArrow=classic;html=1;entryX=0.5;entryY=0;entryDx=0;entryDy=0;exitX=0.5;exitY=1;exitDx=0;exitDy=0;edgeStyle=orthogonalEdgeStyle;" parent="1" source="39" target="124" edge="1">
                    <mxGeometry width="50" height="50" relative="1" as="geometry">
                        <mxPoint x="1560" y="220" as="sourcePoint"/>
                        <mxPoint x="1610" y="170" as="targetPoint"/>
                    </mxGeometry>
                </mxCell>
                <mxCell id="130" value="&lt;b&gt;&lt;i&gt;Buy Products&lt;/i&gt;&lt;/b&gt;" style="swimlane;fontStyle=0;childLayout=stackLayout;horizontal=1;startSize=30;horizontalStack=0;resizeParent=1;resizeParentMax=0;resizeLast=0;collapsible=1;marginBottom=0;whiteSpace=wrap;html=1;fillColor=#999999;" parent="1" vertex="1">
                    <mxGeometry x="2640" y="40" width="140" height="60" as="geometry"/>
                </mxCell>
                <mxCell id="131" value="ProductsIDs - List[String]" style="text;strokeColor=none;fillColor=#CCCCCC;align=left;verticalAlign=middle;spacingLeft=4;spacingRight=4;overflow=hidden;points=[[0,0.5],[1,0.5]];portConstraint=eastwest;rotatable=0;whiteSpace=wrap;html=1;" parent="130" vertex="1">
                    <mxGeometry y="30" width="140" height="30" as="geometry"/>
                </mxCell>
                <mxCell id="132" value="" style="endArrow=classic;html=1;entryX=0.5;entryY=0;entryDx=0;entryDy=0;" parent="1" source="131" target="133" edge="1">
                    <mxGeometry width="50" height="50" relative="1" as="geometry">
                        <mxPoint x="2700" y="132" as="sourcePoint"/>
                        <mxPoint x="2710" y="220" as="targetPoint"/>
                    </mxGeometry>
                </mxCell>
                <mxCell id="133" value="&lt;b&gt;&lt;i&gt;Returns:&lt;br&gt;&lt;/i&gt;&lt;/b&gt;" style="swimlane;fontStyle=0;childLayout=stackLayout;horizontal=1;startSize=30;horizontalStack=0;resizeParent=1;resizeParentMax=0;resizeLast=0;collapsible=1;marginBottom=0;whiteSpace=wrap;html=1;fillColor=#999999;" parent="1" vertex="1">
                    <mxGeometry x="2640" y="220" width="140" height="90" as="geometry"/>
                </mxCell>
                <mxCell id="340" value="&lt;span style=&quot;color: rgb(0, 0, 0);&quot;&gt;Message - String&lt;/span&gt;" style="text;strokeColor=none;fillColor=#CCCCCC;align=left;verticalAlign=middle;spacingLeft=4;spacingRight=4;overflow=hidden;points=[[0,0.5],[1,0.5]];portConstraint=eastwest;rotatable=0;whiteSpace=wrap;html=1;" parent="133" vertex="1">
                    <mxGeometry y="30" width="140" height="30" as="geometry"/>
                </mxCell>
                <mxCell id="339" value="&lt;span style=&quot;color: rgb(0, 0, 0);&quot;&gt;worked - bool&lt;/span&gt;" style="text;strokeColor=none;fillColor=#CCCCCC;align=left;verticalAlign=middle;spacingLeft=4;spacingRight=4;overflow=hidden;points=[[0,0.5],[1,0.5]];portConstraint=eastwest;rotatable=0;whiteSpace=wrap;html=1;" parent="133" vertex="1">
                    <mxGeometry y="60" width="140" height="30" as="geometry"/>
                </mxCell>
                <mxCell id="135" value="" style="endArrow=classic;html=1;entryX=0.5;entryY=0;entryDx=0;entryDy=0;exitX=0.5;exitY=1;exitDx=0;exitDy=0;edgeStyle=orthogonalEdgeStyle;" parent="1" source="39" target="130" edge="1">
                    <mxGeometry width="50" height="50" relative="1" as="geometry">
                        <mxPoint x="2520" y="430" as="sourcePoint"/>
                        <mxPoint x="2570" y="380" as="targetPoint"/>
                    </mxGeometry>
                </mxCell>
                <mxCell id="136" value="" style="endArrow=classic;html=1;dashed=1;edgeStyle=orthogonalEdgeStyle;curved=1;exitX=0.5;exitY=1;exitDx=0;exitDy=0;entryX=0.5;entryY=1;entryDx=0;entryDy=0;fillColor=#f8cecc;strokeColor=#b85450;" parent="1" source="73" target="17" edge="1">
                    <mxGeometry width="50" height="50" relative="1" as="geometry">
                        <mxPoint x="170" y="430" as="sourcePoint"/>
                        <mxPoint x="290" y="530" as="targetPoint"/>
                        <Array as="points">
                            <mxPoint x="810" y="700"/>
                            <mxPoint x="-2160" y="700"/>
                        </Array>
                    </mxGeometry>
                </mxCell>
                <mxCell id="137" value="" style="endArrow=classic;html=1;dashed=1;edgeStyle=orthogonalEdgeStyle;curved=1;exitX=0.5;exitY=1;exitDx=0;exitDy=0;entryX=0.479;entryY=0.962;entryDx=0;entryDy=0;entryPerimeter=0;fillColor=#f8cecc;strokeColor=#b85450;" parent="1" source="66" target="273" edge="1">
                    <mxGeometry width="50" height="50" relative="1" as="geometry">
                        <mxPoint x="640" y="440" as="sourcePoint"/>
                        <mxPoint x="-750" y="310" as="targetPoint"/>
                        <Array as="points">
                            <mxPoint x="1050" y="800"/>
                            <mxPoint x="-2163" y="800"/>
                        </Array>
                    </mxGeometry>
                </mxCell>
                <mxCell id="138" value="" style="endArrow=classic;html=1;dashed=1;edgeStyle=orthogonalEdgeStyle;curved=1;exitX=0.543;exitY=1.2;exitDx=0;exitDy=0;entryX=0.5;entryY=1;entryDx=0;entryDy=0;fillColor=#f8cecc;strokeColor=#b85450;exitPerimeter=0;" parent="1" source="100" target="33" edge="1">
                    <mxGeometry width="50" height="50" relative="1" as="geometry">
                        <mxPoint x="910" y="510" as="sourcePoint"/>
                        <mxPoint x="-480" y="380" as="targetPoint"/>
                        <Array as="points">
                            <mxPoint x="1336" y="870"/>
                            <mxPoint x="-1940" y="870"/>
                        </Array>
                    </mxGeometry>
                </mxCell>
                <mxCell id="139" value="" style="endArrow=classic;html=1;dashed=1;edgeStyle=orthogonalEdgeStyle;curved=1;exitX=0.5;exitY=1;exitDx=0;exitDy=0;fillColor=#f8cecc;strokeColor=#b85450;entryX=0.5;entryY=1;entryDx=0;entryDy=0;" parent="1" source="78" target="33" edge="1">
                    <mxGeometry width="50" height="50" relative="1" as="geometry">
                        <mxPoint x="1286" y="486" as="sourcePoint"/>
                        <mxPoint x="-700" y="180" as="targetPoint"/>
                        <Array as="points">
                            <mxPoint x="1600" y="1070"/>
                            <mxPoint x="-1940" y="1070"/>
                        </Array>
                    </mxGeometry>
                </mxCell>
                <mxCell id="140" value="" style="endArrow=classic;html=1;dashed=1;edgeStyle=orthogonalEdgeStyle;curved=1;exitX=0.486;exitY=1.178;exitDx=0;exitDy=0;fillColor=#f8cecc;strokeColor=#b85450;exitPerimeter=0;entryX=0.507;entryY=1;entryDx=0;entryDy=0;entryPerimeter=0;" parent="1" source="111" target="35" edge="1">
                    <mxGeometry width="50" height="50" relative="1" as="geometry">
                        <mxPoint x="1580" y="410" as="sourcePoint"/>
                        <mxPoint x="-380" y="250" as="targetPoint"/>
                        <Array as="points">
                            <mxPoint x="1818" y="1140"/>
                            <mxPoint x="-1939" y="1140"/>
                        </Array>
                    </mxGeometry>
                </mxCell>
                <mxCell id="141" value="" style="endArrow=classic;html=1;dashed=1;edgeStyle=orthogonalEdgeStyle;curved=1;exitX=0.5;exitY=1;exitDx=0;exitDy=0;fillColor=#f8cecc;strokeColor=#b85450;entryX=0.5;entryY=1;entryDx=0;entryDy=0;" parent="1" source="122" target="21" edge="1">
                    <mxGeometry width="50" height="50" relative="1" as="geometry">
                        <mxPoint x="2100" y="360" as="sourcePoint"/>
                        <mxPoint x="-39" y="240" as="targetPoint"/>
                        <Array as="points">
                            <mxPoint x="2260" y="1200"/>
                            <mxPoint x="-1280" y="1200"/>
                        </Array>
                    </mxGeometry>
                </mxCell>
                <mxCell id="142" value="" style="endArrow=classic;html=1;dashed=1;edgeStyle=orthogonalEdgeStyle;curved=1;exitX=0.5;exitY=1;exitDx=0;exitDy=0;fillColor=#f8cecc;strokeColor=#b85450;entryX=0.5;entryY=1;entryDx=0;entryDy=0;" parent="1" source="92" target="21" edge="1">
                    <mxGeometry width="50" height="50" relative="1" as="geometry">
                        <mxPoint x="1730" y="290" as="sourcePoint"/>
                        <mxPoint x="-200" y="250" as="targetPoint"/>
                        <Array as="points">
                            <mxPoint x="2040" y="1240"/>
                            <mxPoint x="-1280" y="1240"/>
                        </Array>
                    </mxGeometry>
                </mxCell>
                <mxCell id="143" value="" style="endArrow=classic;html=1;dashed=1;edgeStyle=orthogonalEdgeStyle;curved=1;exitX=0.5;exitY=1;exitDx=0;exitDy=0;fillColor=#f8cecc;strokeColor=#b85450;entryX=0.5;entryY=1;entryDx=0;entryDy=0;" parent="1" source="127" target="25" edge="1">
                    <mxGeometry width="50" height="50" relative="1" as="geometry">
                        <mxPoint x="2070" y="310" as="sourcePoint"/>
                        <mxPoint x="120" y="240" as="targetPoint"/>
                        <Array as="points">
                            <mxPoint x="2480" y="1230"/>
                            <mxPoint x="-1500" y="1230"/>
                        </Array>
                    </mxGeometry>
                </mxCell>
                <mxCell id="144" value="" style="endArrow=classic;html=1;dashed=1;edgeStyle=orthogonalEdgeStyle;curved=1;exitX=0.5;exitY=1;exitDx=0;exitDy=0;fillColor=#f8cecc;strokeColor=#b85450;entryX=0.5;entryY=1;entryDx=0;entryDy=0;" parent="1" source="133" target="29" edge="1">
                    <mxGeometry width="50" height="50" relative="1" as="geometry">
                        <mxPoint x="2390" y="380" as="sourcePoint"/>
                        <mxPoint y="340" as="targetPoint"/>
                        <Array as="points">
                            <mxPoint x="2710" y="1330"/>
                            <mxPoint x="-1720" y="1330"/>
                        </Array>
                    </mxGeometry>
                </mxCell>
                <mxCell id="145" value="&lt;h1&gt;Web&lt;/h1&gt;" style="rounded=0;whiteSpace=wrap;html=1;fillColor=#999999;" parent="1" vertex="1">
                    <mxGeometry x="4620" y="-120" width="120" height="60" as="geometry"/>
                </mxCell>
                <mxCell id="146" value="" style="endArrow=classic;html=1;exitX=0.5;exitY=1;exitDx=0;exitDy=0;edgeStyle=orthogonalEdgeStyle;" parent="1" source="145" target="226" edge="1">
                    <mxGeometry width="50" height="50" relative="1" as="geometry">
                        <mxPoint x="4840" y="40" as="sourcePoint"/>
                        <mxPoint x="5180" y="100" as="targetPoint"/>
                    </mxGeometry>
                </mxCell>
                <mxCell id="147" value="" style="endArrow=classic;html=1;exitX=0.5;exitY=1;exitDx=0;exitDy=0;entryX=0.5;entryY=0;entryDx=0;entryDy=0;edgeStyle=orthogonalEdgeStyle;" parent="1" source="145" target="220" edge="1">
                    <mxGeometry width="50" height="50" relative="1" as="geometry">
                        <mxPoint x="4840" y="40" as="sourcePoint"/>
                        <mxPoint x="4520" y="100" as="targetPoint"/>
                    </mxGeometry>
                </mxCell>
                <mxCell id="148" value="" style="endArrow=classic;html=1;exitX=0.5;exitY=1;exitDx=0;exitDy=0;edgeStyle=orthogonalEdgeStyle;" parent="1" source="145" target="222" edge="1">
                    <mxGeometry width="50" height="50" relative="1" as="geometry">
                        <mxPoint x="4840" y="40" as="sourcePoint"/>
                        <mxPoint x="3970" y="100" as="targetPoint"/>
                    </mxGeometry>
                </mxCell>
                <mxCell id="149" value="" style="endArrow=classic;html=1;exitX=0.5;exitY=1;exitDx=0;exitDy=0;edgeStyle=orthogonalEdgeStyle;entryX=0.5;entryY=0;entryDx=0;entryDy=0;" parent="1" source="145" target="212" edge="1">
                    <mxGeometry width="50" height="50" relative="1" as="geometry">
                        <mxPoint x="4709" y="-110" as="sourcePoint"/>
                        <mxPoint x="3768.999999999999" y="50" as="targetPoint"/>
                        <Array as="points">
                            <mxPoint x="4680" y="20"/>
                            <mxPoint x="4110" y="20"/>
                        </Array>
                    </mxGeometry>
                </mxCell>
                <mxCell id="160" value="" style="endArrow=classic;html=1;exitX=0.5;exitY=1;exitDx=0;exitDy=0;entryX=0.5;entryY=0;entryDx=0;entryDy=0;edgeStyle=orthogonalEdgeStyle;" parent="1" source="145" target="225" edge="1">
                    <mxGeometry width="50" height="50" relative="1" as="geometry">
                        <mxPoint x="4680" y="-60" as="sourcePoint"/>
                        <mxPoint x="4960" y="100" as="targetPoint"/>
                    </mxGeometry>
                </mxCell>
                <mxCell id="188" value="" style="endArrow=classic;html=1;exitX=0.5;exitY=1;exitDx=0;exitDy=0;edgeStyle=orthogonalEdgeStyle;" parent="1" source="145" target="221" edge="1">
                    <mxGeometry width="50" height="50" relative="1" as="geometry">
                        <mxPoint x="4580" y="330" as="sourcePoint"/>
                        <mxPoint x="4250" y="100" as="targetPoint"/>
                    </mxGeometry>
                </mxCell>
                <mxCell id="194" value="" style="endArrow=classic;html=1;exitX=0.5;exitY=1;exitDx=0;exitDy=0;edgeStyle=orthogonalEdgeStyle;" parent="1" source="145" target="224" edge="1">
                    <mxGeometry width="50" height="50" relative="1" as="geometry">
                        <mxPoint x="4360" y="390" as="sourcePoint"/>
                        <mxPoint x="4740" y="100" as="targetPoint"/>
                    </mxGeometry>
                </mxCell>
                <mxCell id="205" value="" style="endArrow=classic;html=1;exitX=0.5;exitY=1;exitDx=0;exitDy=0;edgeStyle=orthogonalEdgeStyle;" parent="1" source="145" target="228" edge="1">
                    <mxGeometry width="50" height="50" relative="1" as="geometry">
                        <mxPoint x="4820" y="280" as="sourcePoint"/>
                        <mxPoint x="5400" y="100" as="targetPoint"/>
                    </mxGeometry>
                </mxCell>
                <mxCell id="211" value="" style="endArrow=classic;html=1;entryX=0.5;entryY=0;entryDx=0;entryDy=0;exitX=0.5;exitY=1;exitDx=0;exitDy=0;edgeStyle=orthogonalEdgeStyle;" parent="1" source="145" edge="1" target="223">
                    <mxGeometry width="50" height="50" relative="1" as="geometry">
                        <mxPoint x="5780" y="490" as="sourcePoint"/>
                        <mxPoint x="5630" y="100" as="targetPoint"/>
                    </mxGeometry>
                </mxCell>
                <mxCell id="212" value="&lt;b&gt;&lt;i&gt;Home Page&lt;/i&gt;&lt;/b&gt;" style="rounded=0;whiteSpace=wrap;html=1;fillColor=#999999;" parent="1" vertex="1">
                    <mxGeometry x="4050" y="105" width="120" height="60" as="geometry"/>
                </mxCell>
                <mxCell id="213" value="&lt;b&gt;&lt;i&gt;Match Product:&lt;/i&gt;&lt;/b&gt;" style="swimlane;fontStyle=0;childLayout=stackLayout;horizontal=1;startSize=30;horizontalStack=0;resizeParent=1;resizeParentMax=0;resizeLast=0;collapsible=1;marginBottom=0;whiteSpace=wrap;html=1;fillColor=#999999;" parent="1" vertex="1">
                    <mxGeometry x="2820" y="40" width="140" height="60" as="geometry"/>
                </mxCell>
                <mxCell id="214" value="info - String" style="text;strokeColor=none;fillColor=#CCCCCC;align=left;verticalAlign=middle;spacingLeft=4;spacingRight=4;overflow=hidden;points=[[0,0.5],[1,0.5]];portConstraint=eastwest;rotatable=0;whiteSpace=wrap;html=1;" parent="213" vertex="1">
                    <mxGeometry y="30" width="140" height="30" as="geometry"/>
                </mxCell>
                <mxCell id="215" value="" style="endArrow=classic;html=1;entryX=0.5;entryY=0;entryDx=0;entryDy=0;" parent="1" source="214" target="216" edge="1">
                    <mxGeometry width="50" height="50" relative="1" as="geometry">
                        <mxPoint x="2880" y="132" as="sourcePoint"/>
                        <mxPoint x="2890" y="220" as="targetPoint"/>
                    </mxGeometry>
                </mxCell>
                <mxCell id="216" value="&lt;b&gt;&lt;i&gt;Returns:&lt;br&gt;&lt;/i&gt;&lt;/b&gt;" style="swimlane;fontStyle=0;childLayout=stackLayout;horizontal=1;startSize=30;horizontalStack=0;resizeParent=1;resizeParentMax=0;resizeLast=0;collapsible=1;marginBottom=0;whiteSpace=wrap;html=1;fillColor=#999999;" parent="1" vertex="1">
                    <mxGeometry x="2820" y="220" width="140" height="150" as="geometry"/>
                </mxCell>
                <mxCell id="337" value="&lt;span style=&quot;color: rgb(0, 0, 0);&quot;&gt;worked - bool&lt;/span&gt;" style="text;strokeColor=none;fillColor=#CCCCCC;align=left;verticalAlign=middle;spacingLeft=4;spacingRight=4;overflow=hidden;points=[[0,0.5],[1,0.5]];portConstraint=eastwest;rotatable=0;whiteSpace=wrap;html=1;" parent="216" vertex="1">
                    <mxGeometry y="30" width="140" height="30" as="geometry"/>
                </mxCell>
                <mxCell id="338" value="&lt;span style=&quot;color: rgb(0, 0, 0);&quot;&gt;Message - String&lt;/span&gt;" style="text;strokeColor=none;fillColor=#CCCCCC;align=left;verticalAlign=middle;spacingLeft=4;spacingRight=4;overflow=hidden;points=[[0,0.5],[1,0.5]];portConstraint=eastwest;rotatable=0;whiteSpace=wrap;html=1;" parent="216" vertex="1">
                    <mxGeometry y="60" width="140" height="30" as="geometry"/>
                </mxCell>
                <mxCell id="217" value="Product - Product" style="text;strokeColor=none;fillColor=#CCCCCC;align=left;verticalAlign=middle;spacingLeft=4;spacingRight=4;overflow=hidden;points=[[0,0.5],[1,0.5]];portConstraint=eastwest;rotatable=0;whiteSpace=wrap;html=1;" parent="216" vertex="1">
                    <mxGeometry y="90" width="140" height="30" as="geometry"/>
                </mxCell>
                <mxCell id="218" value="&lt;span style=&quot;color: rgb(0, 0, 0);&quot;&gt;FoundProduct - bool&lt;/span&gt;" style="text;strokeColor=none;fillColor=#CCCCCC;align=left;verticalAlign=middle;spacingLeft=4;spacingRight=4;overflow=hidden;points=[[0,0.5],[1,0.5]];portConstraint=eastwest;rotatable=0;whiteSpace=wrap;html=1;" parent="216" vertex="1">
                    <mxGeometry y="120" width="140" height="30" as="geometry"/>
                </mxCell>
                <mxCell id="219" value="" style="endArrow=classic;html=1;dashed=1;edgeStyle=orthogonalEdgeStyle;curved=1;exitX=0.5;exitY=1;exitDx=0;exitDy=0;fillColor=#f8cecc;strokeColor=#b85450;entryX=0.5;entryY=1;entryDx=0;entryDy=0;" parent="1" source="216" target="25" edge="1">
                    <mxGeometry width="50" height="50" relative="1" as="geometry">
                        <mxPoint x="2540" y="300" as="sourcePoint"/>
                        <mxPoint x="-300" y="230" as="targetPoint"/>
                        <Array as="points">
                            <mxPoint x="2890" y="1350"/>
                            <mxPoint x="-1500" y="1350"/>
                        </Array>
                    </mxGeometry>
                </mxCell>
                <mxCell id="220" value="&lt;b&gt;&lt;i&gt;Gallery Page&lt;/i&gt;&lt;/b&gt;" style="rounded=0;whiteSpace=wrap;html=1;fillColor=#999999;" parent="1" vertex="1">
                    <mxGeometry x="4760" y="105" width="120" height="60" as="geometry"/>
                </mxCell>
                <mxCell id="221" value="&lt;b&gt;&lt;i&gt;Match Drug Page&lt;/i&gt;&lt;/b&gt;" style="rounded=0;whiteSpace=wrap;html=1;fillColor=#999999;" parent="1" vertex="1">
                    <mxGeometry x="4570" y="105" width="120" height="60" as="geometry"/>
                </mxCell>
                <mxCell id="222" value="&lt;b&gt;&lt;i&gt;Drug Page&lt;/i&gt;&lt;/b&gt;" style="rounded=0;whiteSpace=wrap;html=1;fillColor=#999999;" parent="1" vertex="1">
                    <mxGeometry x="4290" y="105" width="120" height="60" as="geometry"/>
                </mxCell>
                <mxCell id="223" value="&lt;b&gt;&lt;i&gt;SignUp Page&lt;/i&gt;&lt;/b&gt;" style="rounded=0;whiteSpace=wrap;html=1;fillColor=#999999;" parent="1" vertex="1">
                    <mxGeometry x="5870" y="105" width="120" height="60" as="geometry"/>
                </mxCell>
                <mxCell id="224" value="&lt;b&gt;&lt;i&gt;Cart Page&lt;/i&gt;&lt;/b&gt;" style="rounded=0;whiteSpace=wrap;html=1;fillColor=#999999;" parent="1" vertex="1">
                    <mxGeometry x="4980" y="105" width="120" height="60" as="geometry"/>
                </mxCell>
                <mxCell id="225" value="&lt;b&gt;&lt;i&gt;Info Page&lt;/i&gt;&lt;/b&gt;" style="rounded=0;whiteSpace=wrap;html=1;fillColor=#999999;" parent="1" vertex="1">
                    <mxGeometry x="5200" y="105" width="120" height="60" as="geometry"/>
                </mxCell>
                <mxCell id="226" value="&lt;b&gt;&lt;i&gt;Pay Page&lt;/i&gt;&lt;/b&gt;" style="rounded=0;whiteSpace=wrap;html=1;fillColor=#999999;" parent="1" vertex="1">
                    <mxGeometry x="5420" y="105" width="120" height="60" as="geometry"/>
                </mxCell>
                <mxCell id="228" value="&lt;b&gt;&lt;i&gt;Login Page&lt;/i&gt;&lt;/b&gt;" style="rounded=0;whiteSpace=wrap;html=1;fillColor=#999999;" parent="1" vertex="1">
                    <mxGeometry x="5640" y="105" width="120" height="60" as="geometry"/>
                </mxCell>
                <mxCell id="229" value="" style="endArrow=classic;html=1;dashed=1;edgeStyle=orthogonalEdgeStyle;curved=1;exitX=0.5;exitY=1;exitDx=0;exitDy=0;fillColor=#fff2cc;strokeColor=#d6b656;entryX=0.5;entryY=0;entryDx=0;entryDy=0;dashPattern=1 2;" parent="1" source="222" target="124" edge="1">
                    <mxGeometry width="50" height="50" relative="1" as="geometry">
                        <mxPoint x="3610" y="230" as="sourcePoint"/>
                        <mxPoint x="1310" y="20" as="targetPoint"/>
                        <Array as="points">
                            <mxPoint x="4350" y="630"/>
                            <mxPoint x="3300" y="630"/>
                            <mxPoint x="3300" y="-80"/>
                            <mxPoint x="2480" y="-80"/>
                        </Array>
                    </mxGeometry>
                </mxCell>
                <mxCell id="230" value="" style="endArrow=classic;html=1;entryX=0.5;entryY=0;entryDx=0;entryDy=0;exitX=0.5;exitY=1;exitDx=0;exitDy=0;edgeStyle=orthogonalEdgeStyle;" parent="1" source="39" target="213" edge="1">
                    <mxGeometry width="50" height="50" relative="1" as="geometry">
                        <mxPoint x="1430" y="-110" as="sourcePoint"/>
                        <mxPoint x="2380" y="50" as="targetPoint"/>
                        <Array as="points">
                            <mxPoint x="1420" y="-40"/>
                            <mxPoint x="2550" y="-40"/>
                        </Array>
                    </mxGeometry>
                </mxCell>
                <mxCell id="232" value="" style="endArrow=classic;html=1;dashed=1;edgeStyle=orthogonalEdgeStyle;curved=1;exitX=0.5;exitY=1;exitDx=0;exitDy=0;fillColor=#fff2cc;strokeColor=#d6b656;entryX=0.5;entryY=0;entryDx=0;entryDy=0;dashPattern=1 2;" parent="1" source="222" target="51" edge="1">
                    <mxGeometry width="50" height="50" relative="1" as="geometry">
                        <mxPoint x="3600" y="34.89" as="sourcePoint"/>
                        <mxPoint x="2140" y="44.77999999999999" as="targetPoint"/>
                        <Array as="points">
                            <mxPoint x="4350" y="635"/>
                            <mxPoint x="3260" y="635"/>
                            <mxPoint x="3260" y="-75"/>
                            <mxPoint x="1600" y="-75"/>
                        </Array>
                    </mxGeometry>
                </mxCell>
                <mxCell id="233" value="" style="endArrow=classic;html=1;dashed=1;edgeStyle=orthogonalEdgeStyle;curved=1;exitX=0.5;exitY=1;exitDx=0;exitDy=0;fillColor=#fff2cc;strokeColor=#d6b656;entryX=0.5;entryY=0;entryDx=0;entryDy=0;dashPattern=1 2;" parent="1" source="253" target="304" edge="1">
                    <mxGeometry width="50" height="50" relative="1" as="geometry">
                        <mxPoint x="3600" y="194.91" as="sourcePoint"/>
                        <mxPoint x="1260" y="94.91" as="targetPoint"/>
                        <Array as="points">
                            <mxPoint x="3940" y="690"/>
                            <mxPoint x="3290" y="690"/>
                            <mxPoint x="3290" y="-100"/>
                            <mxPoint x="-180" y="-100"/>
                        </Array>
                    </mxGeometry>
                </mxCell>
                <mxCell id="234" value="" style="endArrow=classic;html=1;dashed=1;edgeStyle=orthogonalEdgeStyle;curved=1;exitX=0.5;exitY=1;exitDx=0;exitDy=0;fillColor=#fff2cc;strokeColor=#d6b656;entryX=0.5;entryY=0;entryDx=0;entryDy=0;dashPattern=1 2;" parent="1" source="221" target="213" edge="1">
                    <mxGeometry width="50" height="50" relative="1" as="geometry">
                        <mxPoint x="3870" y="290" as="sourcePoint"/>
                        <mxPoint x="1970" y="190" as="targetPoint"/>
                        <Array as="points">
                            <mxPoint x="4630" y="840"/>
                            <mxPoint x="3310" y="840"/>
                            <mxPoint x="3310" y="-50"/>
                            <mxPoint x="2890" y="-50"/>
                        </Array>
                    </mxGeometry>
                </mxCell>
                <mxCell id="235" value="" style="endArrow=classic;html=1;dashed=1;edgeStyle=orthogonalEdgeStyle;curved=1;exitX=0.5;exitY=1;exitDx=0;exitDy=0;fillColor=#fff2cc;strokeColor=#d6b656;entryX=0.5;entryY=0;entryDx=0;entryDy=0;dashPattern=1 2;" parent="1" source="220" target="236" edge="1">
                    <mxGeometry width="50" height="50" relative="1" as="geometry">
                        <mxPoint x="4180" y="240" as="sourcePoint"/>
                        <mxPoint x="2850" y="140" as="targetPoint"/>
                        <Array as="points">
                            <mxPoint x="4820" y="940"/>
                            <mxPoint x="3340" y="940"/>
                            <mxPoint x="3340" y="-100"/>
                            <mxPoint x="590" y="-100"/>
                        </Array>
                    </mxGeometry>
                </mxCell>
                <mxCell id="236" value="&lt;b&gt;&lt;i&gt;Search Product:&lt;/i&gt;&lt;/b&gt;" style="swimlane;fontStyle=0;childLayout=stackLayout;horizontal=1;startSize=30;horizontalStack=0;resizeParent=1;resizeParentMax=0;resizeLast=0;collapsible=1;marginBottom=0;whiteSpace=wrap;html=1;fillColor=#999999;" parent="1" vertex="1">
                    <mxGeometry x="520" y="40" width="140" height="60" as="geometry"/>
                </mxCell>
                <mxCell id="237" value="info - String" style="text;strokeColor=none;fillColor=#CCCCCC;align=left;verticalAlign=middle;spacingLeft=4;spacingRight=4;overflow=hidden;points=[[0,0.5],[1,0.5]];portConstraint=eastwest;rotatable=0;whiteSpace=wrap;html=1;" parent="236" vertex="1">
                    <mxGeometry y="30" width="140" height="30" as="geometry"/>
                </mxCell>
                <mxCell id="238" value="" style="endArrow=classic;html=1;entryX=0.5;entryY=0;entryDx=0;entryDy=0;" parent="1" source="237" target="239" edge="1">
                    <mxGeometry width="50" height="50" relative="1" as="geometry">
                        <mxPoint x="580" y="132" as="sourcePoint"/>
                        <mxPoint x="590" y="220" as="targetPoint"/>
                    </mxGeometry>
                </mxCell>
                <mxCell id="239" value="&lt;b&gt;&lt;i&gt;Returns:&lt;br&gt;&lt;/i&gt;&lt;/b&gt;" style="swimlane;fontStyle=0;childLayout=stackLayout;horizontal=1;startSize=30;horizontalStack=0;resizeParent=1;resizeParentMax=0;resizeLast=0;collapsible=1;marginBottom=0;whiteSpace=wrap;html=1;fillColor=#999999;" parent="1" vertex="1">
                    <mxGeometry x="520" y="220" width="140" height="120" as="geometry"/>
                </mxCell>
                <mxCell id="312" value="&lt;span style=&quot;color: rgb(0, 0, 0);&quot;&gt;Message - String&lt;/span&gt;" style="text;strokeColor=none;fillColor=#CCCCCC;align=left;verticalAlign=middle;spacingLeft=4;spacingRight=4;overflow=hidden;points=[[0,0.5],[1,0.5]];portConstraint=eastwest;rotatable=0;whiteSpace=wrap;html=1;" parent="239" vertex="1">
                    <mxGeometry y="30" width="140" height="30" as="geometry"/>
                </mxCell>
                <mxCell id="311" value="&lt;span style=&quot;color: rgb(0, 0, 0);&quot;&gt;worked - bool&lt;/span&gt;" style="text;strokeColor=none;fillColor=#CCCCCC;align=left;verticalAlign=middle;spacingLeft=4;spacingRight=4;overflow=hidden;points=[[0,0.5],[1,0.5]];portConstraint=eastwest;rotatable=0;whiteSpace=wrap;html=1;" parent="239" vertex="1">
                    <mxGeometry y="60" width="140" height="30" as="geometry"/>
                </mxCell>
                <mxCell id="240" value="&lt;span style=&quot;color: rgb(0, 0, 0);&quot;&gt;Products - List[String]&lt;/span&gt;" style="text;strokeColor=none;fillColor=#CCCCCC;align=left;verticalAlign=middle;spacingLeft=4;spacingRight=4;overflow=hidden;points=[[0,0.5],[1,0.5]];portConstraint=eastwest;rotatable=0;whiteSpace=wrap;html=1;" parent="239" vertex="1">
                    <mxGeometry y="90" width="140" height="30" as="geometry"/>
                </mxCell>
                <mxCell id="242" value="" style="endArrow=classic;html=1;entryX=0.5;entryY=0;entryDx=0;entryDy=0;exitX=0.5;exitY=1;exitDx=0;exitDy=0;edgeStyle=orthogonalEdgeStyle;" parent="1" source="39" target="236" edge="1">
                    <mxGeometry width="50" height="50" relative="1" as="geometry">
                        <mxPoint x="1430" y="-110" as="sourcePoint"/>
                        <mxPoint x="480" y="50" as="targetPoint"/>
                    </mxGeometry>
                </mxCell>
                <mxCell id="244" value="" style="endArrow=classic;html=1;dashed=1;edgeStyle=orthogonalEdgeStyle;curved=1;exitX=0.5;exitY=1;exitDx=0;exitDy=0;fillColor=#fff2cc;strokeColor=#d6b656;entryX=0.5;entryY=0;entryDx=0;entryDy=0;dashPattern=1 2;" parent="1" source="224" target="105" edge="1">
                    <mxGeometry width="50" height="50" relative="1" as="geometry">
                        <mxPoint x="4300" y="250" as="sourcePoint"/>
                        <mxPoint x="400" y="150" as="targetPoint"/>
                        <Array as="points">
                            <mxPoint x="5040" y="1090"/>
                            <mxPoint x="3360" y="1090"/>
                            <mxPoint x="3360" y="-60"/>
                            <mxPoint x="1820" y="-60"/>
                        </Array>
                    </mxGeometry>
                </mxCell>
                <mxCell id="245" value="" style="endArrow=classic;html=1;dashed=1;edgeStyle=orthogonalEdgeStyle;curved=1;exitX=0.5;exitY=1;exitDx=0;exitDy=0;fillColor=#fff2cc;strokeColor=#d6b656;entryX=0.5;entryY=0;entryDx=0;entryDy=0;dashPattern=1 2;" parent="1" source="224" target="96" edge="1">
                    <mxGeometry width="50" height="50" relative="1" as="geometry">
                        <mxPoint x="4390" y="220" as="sourcePoint"/>
                        <mxPoint x="1500" y="120" as="targetPoint"/>
                        <Array as="points">
                            <mxPoint x="5040" y="1130"/>
                            <mxPoint x="3380" y="1130"/>
                            <mxPoint x="3380" y="-80"/>
                            <mxPoint x="1330" y="-80"/>
                        </Array>
                    </mxGeometry>
                </mxCell>
                <mxCell id="247" value="" style="endArrow=classic;html=1;dashed=1;edgeStyle=orthogonalEdgeStyle;curved=1;exitX=0.5;exitY=1;exitDx=0;exitDy=0;fillColor=#fff2cc;strokeColor=#d6b656;entryX=0.5;entryY=0;entryDx=0;entryDy=0;dashPattern=1 2;" parent="1" source="226" target="130" edge="1">
                    <mxGeometry width="50" height="50" relative="1" as="geometry">
                        <mxPoint x="4670" y="260" as="sourcePoint"/>
                        <mxPoint x="1780" y="160" as="targetPoint"/>
                        <Array as="points">
                            <mxPoint x="5480" y="1170"/>
                            <mxPoint x="3320" y="1170"/>
                            <mxPoint x="3320" y="-70"/>
                            <mxPoint x="2710" y="-70"/>
                        </Array>
                    </mxGeometry>
                </mxCell>
                <mxCell id="248" value="" style="endArrow=classic;html=1;dashed=1;edgeStyle=orthogonalEdgeStyle;curved=1;exitX=0.5;exitY=1;exitDx=0;exitDy=0;fillColor=#fff2cc;strokeColor=#d6b656;entryX=0.5;entryY=0;entryDx=0;entryDy=0;dashPattern=1 2;" parent="1" source="228" target="44" edge="1">
                    <mxGeometry width="50" height="50" relative="1" as="geometry">
                        <mxPoint x="5020" y="170" as="sourcePoint"/>
                        <mxPoint x="2580" y="70" as="targetPoint"/>
                        <Array as="points">
                            <mxPoint x="5700" y="1200"/>
                            <mxPoint x="3290" y="1200"/>
                            <mxPoint x="3290" y="-40"/>
                            <mxPoint x="2580" y="-40"/>
                            <mxPoint x="2580" y="-70"/>
                            <mxPoint x="810" y="-70"/>
                        </Array>
                    </mxGeometry>
                </mxCell>
                <mxCell id="249" value="" style="endArrow=classic;html=1;dashed=1;edgeStyle=orthogonalEdgeStyle;curved=1;exitX=0.5;exitY=1;exitDx=0;exitDy=0;fillColor=#fff2cc;strokeColor=#d6b656;entryX=0.5;entryY=0;entryDx=0;entryDy=0;dashPattern=1 2;" parent="1" source="223" target="55" edge="1">
                    <mxGeometry width="50" height="50" relative="1" as="geometry">
                        <mxPoint x="5040" y="150" as="sourcePoint"/>
                        <mxPoint x="480" y="50" as="targetPoint"/>
                        <Array as="points">
                            <mxPoint x="5930" y="1210"/>
                            <mxPoint x="3340" y="1210"/>
                            <mxPoint x="3340" y="-120"/>
                            <mxPoint x="1050" y="-120"/>
                        </Array>
                    </mxGeometry>
                </mxCell>
                <mxCell id="252" value="" style="endArrow=classic;html=1;dashed=1;edgeStyle=orthogonalEdgeStyle;curved=1;exitX=0.5;exitY=1;exitDx=0;exitDy=0;entryX=0.5;entryY=1;entryDx=0;entryDy=0;fillColor=#f8cecc;strokeColor=#b85450;" parent="1" source="239" target="251" edge="1">
                    <mxGeometry width="50" height="50" relative="1" as="geometry">
                        <mxPoint x="250" y="280" as="sourcePoint"/>
                        <mxPoint x="-250" y="240" as="targetPoint"/>
                        <Array as="points">
                            <mxPoint x="590" y="790"/>
                            <mxPoint x="-1500" y="790"/>
                        </Array>
                    </mxGeometry>
                </mxCell>
                <mxCell id="253" value="&lt;b&gt;&lt;i&gt;Admin Page&lt;/i&gt;&lt;/b&gt;" style="rounded=0;whiteSpace=wrap;html=1;fillColor=#999999;" parent="1" vertex="1">
                    <mxGeometry x="3880" y="105" width="120" height="60" as="geometry"/>
                </mxCell>
                <mxCell id="254" value="" style="endArrow=classic;html=1;exitX=0.5;exitY=1;exitDx=0;exitDy=0;edgeStyle=orthogonalEdgeStyle;entryX=0.5;entryY=0;entryDx=0;entryDy=0;" parent="1" source="145" target="253" edge="1">
                    <mxGeometry width="50" height="50" relative="1" as="geometry">
                        <mxPoint x="4500" y="-80" as="sourcePoint"/>
                        <mxPoint x="3550" y="80" as="targetPoint"/>
                        <Array as="points">
                            <mxPoint x="4680" y="20"/>
                            <mxPoint x="3940" y="20"/>
                        </Array>
                    </mxGeometry>
                </mxCell>
                <mxCell id="256" value="&lt;b&gt;&lt;i&gt;Edit&amp;nbsp;&lt;/i&gt;&lt;/b&gt;&lt;b&gt;&lt;i&gt;Product&amp;nbsp;&lt;/i&gt;&lt;/b&gt;&lt;b&gt;&lt;i&gt;Page&lt;/i&gt;&lt;/b&gt;" style="rounded=0;whiteSpace=wrap;html=1;fillColor=#999999;" parent="1" vertex="1">
                    <mxGeometry x="3720" y="105" width="120" height="60" as="geometry"/>
                </mxCell>
                <mxCell id="257" value="" style="endArrow=classic;html=1;exitX=0.5;exitY=1;exitDx=0;exitDy=0;edgeStyle=orthogonalEdgeStyle;entryX=0.5;entryY=0;entryDx=0;entryDy=0;" parent="1" source="145" target="256" edge="1">
                    <mxGeometry width="50" height="50" relative="1" as="geometry">
                        <mxPoint x="4560" y="-90" as="sourcePoint"/>
                        <mxPoint x="3440" y="70" as="targetPoint"/>
                        <Array as="points">
                            <mxPoint x="4680" y="20"/>
                            <mxPoint x="3780" y="20"/>
                        </Array>
                    </mxGeometry>
                </mxCell>
                <mxCell id="288" value="" style="edgeStyle=none;html=1;entryX=0.5;entryY=0;entryDx=0;entryDy=0;" parent="1" source="258" target="261" edge="1">
                    <mxGeometry relative="1" as="geometry"/>
                </mxCell>
                <mxCell id="258" value="&lt;b&gt;&lt;i&gt;Edit Product:&lt;/i&gt;&lt;/b&gt;" style="swimlane;fontStyle=0;childLayout=stackLayout;horizontal=1;startSize=30;horizontalStack=0;resizeParent=1;resizeParentMax=0;resizeLast=0;collapsible=1;marginBottom=0;whiteSpace=wrap;html=1;fillColor=#999999;" parent="1" vertex="1">
                    <mxGeometry x="330" y="40" width="140" height="270" as="geometry"/>
                </mxCell>
                <mxCell id="265" value="&lt;span style=&quot;color: rgb(0, 0, 0);&quot;&gt;ItemID - String&lt;/span&gt;" style="text;strokeColor=none;fillColor=#CCCCCC;align=left;verticalAlign=middle;spacingLeft=4;spacingRight=4;overflow=hidden;points=[[0,0.5],[1,0.5]];portConstraint=eastwest;rotatable=0;whiteSpace=wrap;html=1;" parent="258" vertex="1">
                    <mxGeometry y="30" width="140" height="30" as="geometry"/>
                </mxCell>
                <mxCell id="286" value="Name?- String" style="text;strokeColor=none;fillColor=#CCCCCC;align=left;verticalAlign=middle;spacingLeft=4;spacingRight=4;overflow=hidden;points=[[0,0.5],[1,0.5]];portConstraint=eastwest;rotatable=0;whiteSpace=wrap;html=1;" parent="258" vertex="1">
                    <mxGeometry y="60" width="140" height="30" as="geometry"/>
                </mxCell>
                <mxCell id="270" value="Listed? - bool" style="text;strokeColor=none;fillColor=#CCCCCC;align=left;verticalAlign=middle;spacingLeft=4;spacingRight=4;overflow=hidden;points=[[0,0.5],[1,0.5]];portConstraint=eastwest;rotatable=0;whiteSpace=wrap;html=1;" parent="258" vertex="1">
                    <mxGeometry y="90" width="140" height="30" as="geometry"/>
                </mxCell>
                <mxCell id="269" value="Tags? - Array[String]" style="text;strokeColor=none;fillColor=#CCCCCC;align=left;verticalAlign=middle;spacingLeft=4;spacingRight=4;overflow=hidden;points=[[0,0.5],[1,0.5]];portConstraint=eastwest;rotatable=0;whiteSpace=wrap;html=1;" parent="258" vertex="1">
                    <mxGeometry y="120" width="140" height="30" as="geometry"/>
                </mxCell>
                <mxCell id="268" value="Img? - Img" style="text;strokeColor=none;fillColor=#CCCCCC;align=left;verticalAlign=middle;spacingLeft=4;spacingRight=4;overflow=hidden;points=[[0,0.5],[1,0.5]];portConstraint=eastwest;rotatable=0;whiteSpace=wrap;html=1;" parent="258" vertex="1">
                    <mxGeometry y="150" width="140" height="30" as="geometry"/>
                </mxCell>
                <mxCell id="267" value="Price? - Float" style="text;strokeColor=none;fillColor=#CCCCCC;align=left;verticalAlign=middle;spacingLeft=4;spacingRight=4;overflow=hidden;points=[[0,0.5],[1,0.5]];portConstraint=eastwest;rotatable=0;whiteSpace=wrap;html=1;" parent="258" vertex="1">
                    <mxGeometry y="180" width="140" height="30" as="geometry"/>
                </mxCell>
                <mxCell id="272" value="Description? - String" style="text;strokeColor=none;fillColor=#CCCCCC;align=left;verticalAlign=middle;spacingLeft=4;spacingRight=4;overflow=hidden;points=[[0,0.5],[1,0.5]];portConstraint=eastwest;rotatable=0;whiteSpace=wrap;html=1;" parent="258" vertex="1">
                    <mxGeometry y="210" width="140" height="30" as="geometry"/>
                </mxCell>
                <mxCell id="266" value="AdminID - userID" style="text;strokeColor=none;fillColor=#CCCCCC;align=left;verticalAlign=middle;spacingLeft=4;spacingRight=4;overflow=hidden;points=[[0,0.5],[1,0.5]];portConstraint=eastwest;rotatable=0;whiteSpace=wrap;html=1;" parent="258" vertex="1">
                    <mxGeometry y="240" width="140" height="30" as="geometry"/>
                </mxCell>
                <mxCell id="261" value="&lt;b&gt;&lt;i&gt;Returns:&lt;br&gt;&lt;/i&gt;&lt;/b&gt;" style="swimlane;fontStyle=0;childLayout=stackLayout;horizontal=1;startSize=30;horizontalStack=0;resizeParent=1;resizeParentMax=0;resizeLast=0;collapsible=1;marginBottom=0;whiteSpace=wrap;html=1;fillColor=#999999;" parent="1" vertex="1">
                    <mxGeometry x="330" y="370.06" width="140" height="90" as="geometry"/>
                </mxCell>
                <mxCell id="262" value="&lt;span style=&quot;color: rgb(0, 0, 0);&quot;&gt;worked - bool&lt;/span&gt;" style="text;strokeColor=none;fillColor=#CCCCCC;align=left;verticalAlign=middle;spacingLeft=4;spacingRight=4;overflow=hidden;points=[[0,0.5],[1,0.5]];portConstraint=eastwest;rotatable=0;whiteSpace=wrap;html=1;" parent="261" vertex="1">
                    <mxGeometry y="30" width="140" height="30" as="geometry"/>
                </mxCell>
                <mxCell id="271" value="&lt;span style=&quot;color: rgb(0, 0, 0);&quot;&gt;Message - String&lt;/span&gt;" style="text;strokeColor=none;fillColor=#CCCCCC;align=left;verticalAlign=middle;spacingLeft=4;spacingRight=4;overflow=hidden;points=[[0,0.5],[1,0.5]];portConstraint=eastwest;rotatable=0;whiteSpace=wrap;html=1;" parent="261" vertex="1">
                    <mxGeometry y="60" width="140" height="30" as="geometry"/>
                </mxCell>
                <mxCell id="263" value="&lt;b&gt;&lt;i&gt;Add Product Page&lt;/i&gt;&lt;/b&gt;" style="rounded=0;whiteSpace=wrap;html=1;fillColor=#999999;" parent="1" vertex="1">
                    <mxGeometry x="3560" y="105" width="120" height="60" as="geometry"/>
                </mxCell>
                <mxCell id="264" value="" style="endArrow=classic;html=1;exitX=0.5;exitY=1;exitDx=0;exitDy=0;edgeStyle=orthogonalEdgeStyle;entryX=0.5;entryY=0;entryDx=0;entryDy=0;" parent="1" source="145" target="263" edge="1">
                    <mxGeometry width="50" height="50" relative="1" as="geometry">
                        <mxPoint x="4530" y="-60" as="sourcePoint"/>
                        <mxPoint x="3630" y="105" as="targetPoint"/>
                        <Array as="points">
                            <mxPoint x="4680" y="20"/>
                            <mxPoint x="3620" y="20"/>
                        </Array>
                    </mxGeometry>
                </mxCell>
                <mxCell id="274" value="&lt;b&gt;&lt;i&gt;Add Product:&lt;/i&gt;&lt;/b&gt;" style="swimlane;fontStyle=0;childLayout=stackLayout;horizontal=1;startSize=30;horizontalStack=0;resizeParent=1;resizeParentMax=0;resizeLast=0;collapsible=1;marginBottom=0;whiteSpace=wrap;html=1;fillColor=#999999;" parent="1" vertex="1">
                    <mxGeometry x="150" y="40" width="140" height="270" as="geometry"/>
                </mxCell>
                <mxCell id="275" value="ItemID - String" style="text;strokeColor=none;fillColor=#CCCCCC;align=left;verticalAlign=middle;spacingLeft=4;spacingRight=4;overflow=hidden;points=[[0,0.5],[1,0.5]];portConstraint=eastwest;rotatable=0;whiteSpace=wrap;html=1;" parent="274" vertex="1">
                    <mxGeometry y="30" width="140" height="30" as="geometry"/>
                </mxCell>
                <mxCell id="289" value="Name? - String" style="text;strokeColor=none;fillColor=#CCCCCC;align=left;verticalAlign=middle;spacingLeft=4;spacingRight=4;overflow=hidden;points=[[0,0.5],[1,0.5]];portConstraint=eastwest;rotatable=0;whiteSpace=wrap;html=1;" parent="274" vertex="1">
                    <mxGeometry y="60" width="140" height="30" as="geometry"/>
                </mxCell>
                <mxCell id="276" value="Listed? - bool" style="text;strokeColor=none;fillColor=#CCCCCC;align=left;verticalAlign=middle;spacingLeft=4;spacingRight=4;overflow=hidden;points=[[0,0.5],[1,0.5]];portConstraint=eastwest;rotatable=0;whiteSpace=wrap;html=1;" parent="274" vertex="1">
                    <mxGeometry y="90" width="140" height="30" as="geometry"/>
                </mxCell>
                <mxCell id="277" value="Tags? - Array[String]" style="text;strokeColor=none;fillColor=#CCCCCC;align=left;verticalAlign=middle;spacingLeft=4;spacingRight=4;overflow=hidden;points=[[0,0.5],[1,0.5]];portConstraint=eastwest;rotatable=0;whiteSpace=wrap;html=1;" parent="274" vertex="1">
                    <mxGeometry y="120" width="140" height="30" as="geometry"/>
                </mxCell>
                <mxCell id="278" value="Img? - Img" style="text;strokeColor=none;fillColor=#CCCCCC;align=left;verticalAlign=middle;spacingLeft=4;spacingRight=4;overflow=hidden;points=[[0,0.5],[1,0.5]];portConstraint=eastwest;rotatable=0;whiteSpace=wrap;html=1;" parent="274" vertex="1">
                    <mxGeometry y="150" width="140" height="30" as="geometry"/>
                </mxCell>
                <mxCell id="279" value="Price? - Float" style="text;strokeColor=none;fillColor=#CCCCCC;align=left;verticalAlign=middle;spacingLeft=4;spacingRight=4;overflow=hidden;points=[[0,0.5],[1,0.5]];portConstraint=eastwest;rotatable=0;whiteSpace=wrap;html=1;" parent="274" vertex="1">
                    <mxGeometry y="180" width="140" height="30" as="geometry"/>
                </mxCell>
                <mxCell id="280" value="Description? - String" style="text;strokeColor=none;fillColor=#CCCCCC;align=left;verticalAlign=middle;spacingLeft=4;spacingRight=4;overflow=hidden;points=[[0,0.5],[1,0.5]];portConstraint=eastwest;rotatable=0;whiteSpace=wrap;html=1;" parent="274" vertex="1">
                    <mxGeometry y="210" width="140" height="30" as="geometry"/>
                </mxCell>
                <mxCell id="281" value="AdminID - userID" style="text;strokeColor=none;fillColor=#CCCCCC;align=left;verticalAlign=middle;spacingLeft=4;spacingRight=4;overflow=hidden;points=[[0,0.5],[1,0.5]];portConstraint=eastwest;rotatable=0;whiteSpace=wrap;html=1;" parent="274" vertex="1">
                    <mxGeometry y="240" width="140" height="30" as="geometry"/>
                </mxCell>
                <mxCell id="282" value="" style="endArrow=classic;html=1;entryX=0.5;entryY=0;entryDx=0;entryDy=0;exitX=0.505;exitY=0.998;exitDx=0;exitDy=0;exitPerimeter=0;" parent="1" source="281" target="283" edge="1">
                    <mxGeometry width="50" height="50" relative="1" as="geometry">
                        <mxPoint x="220" y="280" as="sourcePoint"/>
                        <mxPoint x="220" y="220" as="targetPoint"/>
                    </mxGeometry>
                </mxCell>
                <mxCell id="283" value="&lt;b&gt;&lt;i&gt;Returns:&lt;br&gt;&lt;/i&gt;&lt;/b&gt;" style="swimlane;fontStyle=0;childLayout=stackLayout;horizontal=1;startSize=30;horizontalStack=0;resizeParent=1;resizeParentMax=0;resizeLast=0;collapsible=1;marginBottom=0;whiteSpace=wrap;html=1;fillColor=#999999;" parent="1" vertex="1">
                    <mxGeometry x="150" y="370" width="140" height="90" as="geometry"/>
                </mxCell>
                <mxCell id="284" value="&lt;span style=&quot;color: rgb(0, 0, 0);&quot;&gt;worked - bool&lt;/span&gt;" style="text;strokeColor=none;fillColor=#CCCCCC;align=left;verticalAlign=middle;spacingLeft=4;spacingRight=4;overflow=hidden;points=[[0,0.5],[1,0.5]];portConstraint=eastwest;rotatable=0;whiteSpace=wrap;html=1;" parent="283" vertex="1">
                    <mxGeometry y="30" width="140" height="30" as="geometry"/>
                </mxCell>
                <mxCell id="285" value="&lt;span style=&quot;color: rgb(0, 0, 0);&quot;&gt;Message - String&lt;/span&gt;" style="text;strokeColor=none;fillColor=#CCCCCC;align=left;verticalAlign=middle;spacingLeft=4;spacingRight=4;overflow=hidden;points=[[0,0.5],[1,0.5]];portConstraint=eastwest;rotatable=0;whiteSpace=wrap;html=1;" parent="283" vertex="1">
                    <mxGeometry y="60" width="140" height="30" as="geometry"/>
                </mxCell>
                <mxCell id="290" value="&lt;b&gt;&lt;i&gt;Get All Products&lt;/i&gt;&lt;/b&gt;" style="swimlane;fontStyle=0;childLayout=stackLayout;horizontal=1;startSize=30;horizontalStack=0;resizeParent=1;resizeParentMax=0;resizeLast=0;collapsible=1;marginBottom=0;whiteSpace=wrap;html=1;fillColor=#999999;" parent="1" vertex="1">
                    <mxGeometry x="-70" y="40" width="140" height="60" as="geometry"/>
                </mxCell>
                <mxCell id="299" value="" style="endArrow=classic;html=1;entryX=0.5;entryY=0;entryDx=0;entryDy=0;" parent="1" source="290" target="300" edge="1">
                    <mxGeometry width="50" height="50" relative="1" as="geometry">
                        <mxPoint x="0.7000000000002728" y="309.9399999999998" as="sourcePoint"/>
                        <mxPoint y="220" as="targetPoint"/>
                    </mxGeometry>
                </mxCell>
                <mxCell id="300" value="&lt;b&gt;&lt;i&gt;Returns:&lt;br&gt;&lt;/i&gt;&lt;/b&gt;" style="swimlane;fontStyle=0;childLayout=stackLayout;horizontal=1;startSize=30;horizontalStack=0;resizeParent=1;resizeParentMax=0;resizeLast=0;collapsible=1;marginBottom=0;whiteSpace=wrap;html=1;fillColor=#999999;" parent="1" vertex="1">
                    <mxGeometry x="-70" y="260" width="140" height="120" as="geometry"/>
                </mxCell>
                <mxCell id="301" value="&lt;span style=&quot;color: rgb(0, 0, 0);&quot;&gt;worked - bool&lt;/span&gt;" style="text;strokeColor=none;fillColor=#CCCCCC;align=left;verticalAlign=middle;spacingLeft=4;spacingRight=4;overflow=hidden;points=[[0,0.5],[1,0.5]];portConstraint=eastwest;rotatable=0;whiteSpace=wrap;html=1;" parent="300" vertex="1">
                    <mxGeometry y="30" width="140" height="30" as="geometry"/>
                </mxCell>
                <mxCell id="302" value="&lt;span style=&quot;color: rgb(0, 0, 0);&quot;&gt;Message - String&lt;/span&gt;" style="text;strokeColor=none;fillColor=#CCCCCC;align=left;verticalAlign=middle;spacingLeft=4;spacingRight=4;overflow=hidden;points=[[0,0.5],[1,0.5]];portConstraint=eastwest;rotatable=0;whiteSpace=wrap;html=1;" parent="300" vertex="1">
                    <mxGeometry y="60" width="140" height="30" as="geometry"/>
                </mxCell>
                <mxCell id="303" value="&lt;span style=&quot;color: rgb(0, 0, 0);&quot;&gt;ProductsID&#39;s - Array[String]&lt;/span&gt;" style="text;strokeColor=none;fillColor=#CCCCCC;align=left;verticalAlign=middle;spacingLeft=4;spacingRight=4;overflow=hidden;points=[[0,0.5],[1,0.5]];portConstraint=eastwest;rotatable=0;whiteSpace=wrap;html=1;" parent="300" vertex="1">
                    <mxGeometry y="90" width="140" height="30" as="geometry"/>
                </mxCell>
                <mxCell id="304" value="&lt;b&gt;&lt;i&gt;IsAdmin&lt;/i&gt;&lt;/b&gt;" style="swimlane;fontStyle=0;childLayout=stackLayout;horizontal=1;startSize=30;horizontalStack=0;resizeParent=1;resizeParentMax=0;resizeLast=0;collapsible=1;marginBottom=0;whiteSpace=wrap;html=1;fillColor=#999999;" parent="1" vertex="1">
                    <mxGeometry x="-250" y="40" width="140" height="60" as="geometry"/>
                </mxCell>
                <mxCell id="310" value="UserID- userID" style="text;strokeColor=none;fillColor=#CCCCCC;align=left;verticalAlign=middle;spacingLeft=4;spacingRight=4;overflow=hidden;points=[[0,0.5],[1,0.5]];portConstraint=eastwest;rotatable=0;whiteSpace=wrap;html=1;" parent="304" vertex="1">
                    <mxGeometry y="30" width="140" height="30" as="geometry"/>
                </mxCell>
                <mxCell id="305" value="" style="endArrow=classic;html=1;entryX=0.5;entryY=0;entryDx=0;entryDy=0;" parent="1" source="304" target="306" edge="1">
                    <mxGeometry width="50" height="50" relative="1" as="geometry">
                        <mxPoint x="-179.29999999999973" y="309.9399999999998" as="sourcePoint"/>
                        <mxPoint x="-180" y="220" as="targetPoint"/>
                    </mxGeometry>
                </mxCell>
                <mxCell id="306" value="&lt;b&gt;&lt;i&gt;Returns:&lt;br&gt;&lt;/i&gt;&lt;/b&gt;" style="swimlane;fontStyle=0;childLayout=stackLayout;horizontal=1;startSize=30;horizontalStack=0;resizeParent=1;resizeParentMax=0;resizeLast=0;collapsible=1;marginBottom=0;whiteSpace=wrap;html=1;fillColor=#999999;" parent="1" vertex="1">
                    <mxGeometry x="-250" y="260" width="140" height="120" as="geometry"/>
                </mxCell>
                <mxCell id="307" value="&lt;span style=&quot;color: rgb(0, 0, 0);&quot;&gt;worked - bool&lt;/span&gt;" style="text;strokeColor=none;fillColor=#CCCCCC;align=left;verticalAlign=middle;spacingLeft=4;spacingRight=4;overflow=hidden;points=[[0,0.5],[1,0.5]];portConstraint=eastwest;rotatable=0;whiteSpace=wrap;html=1;" parent="306" vertex="1">
                    <mxGeometry y="30" width="140" height="30" as="geometry"/>
                </mxCell>
                <mxCell id="308" value="&lt;span style=&quot;color: rgb(0, 0, 0);&quot;&gt;Message - String&lt;/span&gt;" style="text;strokeColor=none;fillColor=#CCCCCC;align=left;verticalAlign=middle;spacingLeft=4;spacingRight=4;overflow=hidden;points=[[0,0.5],[1,0.5]];portConstraint=eastwest;rotatable=0;whiteSpace=wrap;html=1;" parent="306" vertex="1">
                    <mxGeometry y="60" width="140" height="30" as="geometry"/>
                </mxCell>
                <mxCell id="309" value="&lt;span style=&quot;color: rgb(0, 0, 0);&quot;&gt;IsAdmin - bool&lt;/span&gt;" style="text;strokeColor=none;fillColor=#CCCCCC;align=left;verticalAlign=middle;spacingLeft=4;spacingRight=4;overflow=hidden;points=[[0,0.5],[1,0.5]];portConstraint=eastwest;rotatable=0;whiteSpace=wrap;html=1;" parent="306" vertex="1">
                    <mxGeometry y="90" width="140" height="30" as="geometry"/>
                </mxCell>
                <mxCell id="341" value="" style="endArrow=classic;html=1;entryX=0.5;entryY=0;entryDx=0;entryDy=0;edgeStyle=orthogonalEdgeStyle;exitX=0.5;exitY=1;exitDx=0;exitDy=0;" parent="1" source="39" target="258" edge="1">
                    <mxGeometry width="50" height="50" relative="1" as="geometry">
                        <mxPoint x="1414.1666666666667" y="-40" as="sourcePoint"/>
                        <mxPoint x="-10" y="10" as="targetPoint"/>
                    </mxGeometry>
                </mxCell>
                <mxCell id="342" value="" style="endArrow=classic;html=1;entryX=0.5;entryY=0;entryDx=0;entryDy=0;edgeStyle=orthogonalEdgeStyle;exitX=0.5;exitY=1;exitDx=0;exitDy=0;" parent="1" source="39" target="274" edge="1">
                    <mxGeometry width="50" height="50" relative="1" as="geometry">
                        <mxPoint x="1120" y="-100" as="sourcePoint"/>
                        <mxPoint x="-240" y="60" as="targetPoint"/>
                    </mxGeometry>
                </mxCell>
                <mxCell id="343" value="" style="endArrow=classic;html=1;entryX=0.5;entryY=0;entryDx=0;entryDy=0;edgeStyle=orthogonalEdgeStyle;exitX=0.5;exitY=1;exitDx=0;exitDy=0;" parent="1" source="39" target="290" edge="1">
                    <mxGeometry width="50" height="50" relative="1" as="geometry">
                        <mxPoint x="1000" y="-100" as="sourcePoint"/>
                        <mxPoint x="-360" y="60" as="targetPoint"/>
                    </mxGeometry>
                </mxCell>
                <mxCell id="344" value="" style="endArrow=classic;html=1;entryX=0.5;entryY=0;entryDx=0;entryDy=0;edgeStyle=orthogonalEdgeStyle;exitX=0.5;exitY=1;exitDx=0;exitDy=0;" parent="1" source="39" target="304" edge="1">
                    <mxGeometry width="50" height="50" relative="1" as="geometry">
                        <mxPoint x="730" y="-110" as="sourcePoint"/>
                        <mxPoint x="-630" y="50" as="targetPoint"/>
                    </mxGeometry>
                </mxCell>
                <mxCell id="345" value="" style="endArrow=classic;html=1;dashed=1;edgeStyle=orthogonalEdgeStyle;curved=1;exitX=0.5;exitY=1;exitDx=0;exitDy=0;entryX=0.5;entryY=1;entryDx=0;entryDy=0;fillColor=#f8cecc;strokeColor=#b85450;" parent="1" source="261" target="25" edge="1">
                    <mxGeometry width="50" height="50" relative="1" as="geometry">
                        <mxPoint x="643" y="351" as="sourcePoint"/>
                        <mxPoint x="-2230" y="260" as="targetPoint"/>
                        <Array as="points">
                            <mxPoint x="400" y="811"/>
                            <mxPoint x="-1500" y="811"/>
                        </Array>
                    </mxGeometry>
                </mxCell>
                <mxCell id="346" value="" style="endArrow=classic;html=1;dashed=1;edgeStyle=orthogonalEdgeStyle;curved=1;exitX=0.5;exitY=1;exitDx=0;exitDy=0;entryX=0.5;entryY=1;entryDx=0;entryDy=0;fillColor=#f8cecc;strokeColor=#b85450;" parent="1" source="283" target="25" edge="1">
                    <mxGeometry width="50" height="50" relative="1" as="geometry">
                        <mxPoint x="-120" y="500" as="sourcePoint"/>
                        <mxPoint x="-1680" y="350" as="targetPoint"/>
                        <Array as="points">
                            <mxPoint x="220" y="851"/>
                            <mxPoint x="-1500" y="851"/>
                        </Array>
                    </mxGeometry>
                </mxCell>
                <mxCell id="347" value="" style="endArrow=classic;html=1;dashed=1;edgeStyle=orthogonalEdgeStyle;curved=1;exitX=0.5;exitY=1;exitDx=0;exitDy=0;entryX=0.5;entryY=1;entryDx=0;entryDy=0;fillColor=#f8cecc;strokeColor=#b85450;" parent="1" source="300" target="25" edge="1">
                    <mxGeometry width="50" height="50" relative="1" as="geometry">
                        <mxPoint x="-260" y="510" as="sourcePoint"/>
                        <mxPoint x="-1640" y="360" as="targetPoint"/>
                        <Array as="points">
                            <mxPoint y="901"/>
                            <mxPoint x="-1500" y="901"/>
                        </Array>
                    </mxGeometry>
                </mxCell>
                <mxCell id="348" value="" style="endArrow=classic;html=1;dashed=1;edgeStyle=orthogonalEdgeStyle;curved=1;exitX=0.5;exitY=1;exitDx=0;exitDy=0;entryX=0.463;entryY=0.869;entryDx=0;entryDy=0;fillColor=#f8cecc;strokeColor=#b85450;entryPerimeter=0;" parent="1" source="306" target="273" edge="1">
                    <mxGeometry width="50" height="50" relative="1" as="geometry">
                        <mxPoint x="-460" y="460" as="sourcePoint"/>
                        <mxPoint x="-1620" y="390" as="targetPoint"/>
                        <Array as="points">
                            <mxPoint x="-180" y="981"/>
                            <mxPoint x="-2165" y="981"/>
                        </Array>
                    </mxGeometry>
                </mxCell>
                <mxCell id="349" value="" style="endArrow=classic;html=1;dashed=1;edgeStyle=orthogonalEdgeStyle;curved=1;exitX=0.5;exitY=1;exitDx=0;exitDy=0;fillColor=#fff2cc;strokeColor=#d6b656;entryX=0.5;entryY=0;entryDx=0;entryDy=0;dashPattern=1 2;" parent="1" edge="1">
                    <mxGeometry width="50" height="50" relative="1" as="geometry">
                        <mxPoint x="4360" y="175" as="sourcePoint"/>
                        <mxPoint x="2050" y="50" as="targetPoint"/>
                        <Array as="points">
                            <mxPoint x="4360" y="700"/>
                            <mxPoint x="3300" y="700"/>
                            <mxPoint x="3300" y="-10"/>
                            <mxPoint x="2050" y="-10"/>
                        </Array>
                    </mxGeometry>
                </mxCell>
                <mxCell id="350" value="" style="endArrow=classic;html=1;dashed=1;edgeStyle=orthogonalEdgeStyle;curved=1;exitX=0.5;exitY=1;exitDx=0;exitDy=0;fillColor=#fff2cc;strokeColor=#d6b656;entryX=0.5;entryY=0;entryDx=0;entryDy=0;dashPattern=1 2;" parent="1" source="253" target="290" edge="1">
                    <mxGeometry width="50" height="50" relative="1" as="geometry">
                        <mxPoint x="3950" y="175" as="sourcePoint"/>
                        <mxPoint x="-170" y="50" as="targetPoint"/>
                        <Array as="points">
                            <mxPoint x="3940" y="700"/>
                            <mxPoint x="3300" y="700"/>
                            <mxPoint x="3300" y="-90"/>
                            <mxPoint y="-90"/>
                        </Array>
                    </mxGeometry>
                </mxCell>
                <mxCell id="351" value="" style="endArrow=classic;html=1;dashed=1;edgeStyle=orthogonalEdgeStyle;curved=1;exitX=0.5;exitY=1;exitDx=0;exitDy=0;fillColor=#fff2cc;strokeColor=#d6b656;entryX=0.5;entryY=0;entryDx=0;entryDy=0;dashPattern=1 2;" parent="1" source="220" target="290" edge="1">
                    <mxGeometry width="50" height="50" relative="1" as="geometry">
                        <mxPoint x="4350" y="245" as="sourcePoint"/>
                        <mxPoint x="410" y="120" as="targetPoint"/>
                        <Array as="points">
                            <mxPoint x="4820" y="780"/>
                            <mxPoint x="3360" y="780"/>
                            <mxPoint x="3360" y="-80"/>
                            <mxPoint y="-80"/>
                        </Array>
                    </mxGeometry>
                </mxCell>
                <mxCell id="352" value="" style="endArrow=classic;html=1;dashed=1;edgeStyle=orthogonalEdgeStyle;curved=1;exitX=0.5;exitY=1;exitDx=0;exitDy=0;fillColor=#fff2cc;strokeColor=#d6b656;entryX=0.5;entryY=0;entryDx=0;entryDy=0;dashPattern=1 2;" parent="1" source="256" target="258" edge="1">
                    <mxGeometry width="50" height="50" relative="1" as="geometry">
                        <mxPoint x="3940" y="135" as="sourcePoint"/>
                        <mxPoint y="10" as="targetPoint"/>
                        <Array as="points">
                            <mxPoint x="3780" y="670"/>
                            <mxPoint x="3300" y="670"/>
                            <mxPoint x="3300" y="-90"/>
                            <mxPoint x="400" y="-90"/>
                        </Array>
                    </mxGeometry>
                </mxCell>
                <mxCell id="353" value="" style="endArrow=classic;html=1;dashed=1;edgeStyle=orthogonalEdgeStyle;curved=1;exitX=0.5;exitY=1;exitDx=0;exitDy=0;fillColor=#fff2cc;strokeColor=#d6b656;entryX=0.5;entryY=0;entryDx=0;entryDy=0;dashPattern=1 2;" parent="1" source="263" target="274" edge="1">
                    <mxGeometry width="50" height="50" relative="1" as="geometry">
                        <mxPoint x="3790" y="175" as="sourcePoint"/>
                        <mxPoint x="410" y="50" as="targetPoint"/>
                        <Array as="points">
                            <mxPoint x="3620" y="680"/>
                            <mxPoint x="3310" y="680"/>
                            <mxPoint x="3310" y="-80"/>
                            <mxPoint x="220" y="-80"/>
                        </Array>
                    </mxGeometry>
                </mxCell>
                <mxCell id="355" value="" style="endArrow=classic;html=1;dashed=1;edgeStyle=orthogonalEdgeStyle;curved=1;exitX=0.5;exitY=1;exitDx=0;exitDy=0;fillColor=#fff2cc;strokeColor=#d6b656;entryX=0.5;entryY=0;entryDx=0;entryDy=0;dashPattern=1 2;" parent="1" source="253" target="304" edge="1">
                    <mxGeometry width="50" height="50" relative="1" as="geometry">
                        <mxPoint x="3950" y="175" as="sourcePoint"/>
                        <mxPoint x="10" y="50" as="targetPoint"/>
                        <Array as="points">
                            <mxPoint x="3940" y="710"/>
                            <mxPoint x="3340" y="710"/>
                            <mxPoint x="3340" y="-80"/>
                            <mxPoint x="-180" y="-80"/>
                        </Array>
                    </mxGeometry>
                </mxCell>
                <mxCell id="356" value="" style="endArrow=classic;html=1;dashed=1;edgeStyle=orthogonalEdgeStyle;curved=1;exitX=0.5;exitY=1;exitDx=0;exitDy=0;fillColor=#fff2cc;strokeColor=#d6b656;entryX=0.5;entryY=0;entryDx=0;entryDy=0;dashPattern=1 2;" parent="1" source="263" target="304" edge="1">
                    <mxGeometry width="50" height="50" relative="1" as="geometry">
                        <mxPoint x="3950" y="175" as="sourcePoint"/>
                        <mxPoint x="-170" y="50" as="targetPoint"/>
                        <Array as="points">
                            <mxPoint x="3620" y="720"/>
                            <mxPoint x="3350" y="720"/>
                            <mxPoint x="3350" y="-100"/>
                            <mxPoint x="-180" y="-100"/>
                        </Array>
                    </mxGeometry>
                </mxCell>
                <mxCell id="357" value="" style="endArrow=classic;html=1;dashed=1;edgeStyle=orthogonalEdgeStyle;curved=1;exitX=0.5;exitY=1;exitDx=0;exitDy=0;fillColor=#fff2cc;strokeColor=#d6b656;entryX=0.5;entryY=0;entryDx=0;entryDy=0;dashPattern=1 2;" parent="1" source="256" target="304" edge="1">
                    <mxGeometry width="50" height="50" relative="1" as="geometry">
                        <mxPoint x="3960" y="185" as="sourcePoint"/>
                        <mxPoint x="-160" y="60" as="targetPoint"/>
                        <Array as="points">
                            <mxPoint x="3780" y="730"/>
                            <mxPoint x="3330" y="730"/>
                            <mxPoint x="3330" y="-90"/>
                            <mxPoint x="-180" y="-90"/>
                        </Array>
                    </mxGeometry>
                </mxCell>
            </root>
        </mxGraphModel>
    </diagram>
</mxfile>